<?xml version="1.0" encoding="utf-8"?>
<!-- Generator: Adobe Illustrator 22.1.0, SVG Export Plug-In . SVG Version: 6.00 Build 0)  -->
<svg version="1.1" id="Capa_1" xmlns="http://www.w3.org/2000/svg" xmlns:xlink="http://www.w3.org/1999/xlink" x="0px" y="0px"
	 viewBox="0 0 496 496" style="enable-background:new 0 0 496 496;" xml:space="preserve">
<style type="text/css">
	.st0{fill:#D04F45;}
</style>
<g id="XMLID_1_">
	<g id="XMLID_2_">
		<g id="XMLID_3_">
			<path id="XMLID_26_" class="st0" d="M336,416v16h144v24c0,13.2-10.8,24-24,24H40c-13.2,0-24-10.8-24-24v-24h144v-16H0v40
				c0,22.1,17.9,40,40,40h416c22.1,0,40-17.9,40-40v-40H336z"/>
			<path id="XMLID_23_" class="st0" d="M200,464h96c13.2,0,24-10.8,24-24v-24H176v24C176,453.2,186.8,464,200,464z M192,432h112v8
				c0,4.4-3.6,8-8,8h-96c-4.4,0-8-3.6-8-8V432z"/>
			<path id="XMLID_22_" class="st0" d="M32,144c0-13.2,10.8-24,24-24h56v-16H56c-22.1,0-40,17.9-40,40v256h16V144z"/>
			<path id="XMLID_21_" class="st0" d="M464,144v256h16V144c0-22.1-17.9-40-40-40h-56v16h56C453.2,120,464,130.8,464,144z"/>
			<path id="XMLID_20_" class="st0" d="M48,152v248h16V152h64v-16H64C55.2,136,48,143.2,48,152z"/>
			<path id="XMLID_19_" class="st0" d="M448,400V152c0-8.8-7.2-16-16-16h-64v16h64v248H448z"/>
			<rect id="XMLID_18_" x="272" y="240" class="st0" width="16" height="112"/>
			<rect id="XMLID_17_" x="208" y="240" class="st0" width="16" height="112"/>
			<path id="XMLID_16_" class="st0" d="M368,304v-16h-32c-4.4,0-8-3.6-8-8v-48h-16v48c0,13.2,10.8,24,24,24H368z"/>
			<path id="XMLID_15_" class="st0" d="M184,280v-48h-16v48c0,4.4-3.6,8-8,8h-32v16h32C173.2,304,184,293.2,184,280z"/>
			<rect id="XMLID_14_" x="272" y="368" class="st0" width="16" height="16"/>
			<rect id="XMLID_13_" x="208" y="368" class="st0" width="16" height="16"/>
			<rect id="XMLID_12_" x="384" y="288" class="st0" width="16" height="16"/>
			<rect id="XMLID_11_" x="96" y="288" class="st0" width="16" height="16"/>
			<path id="XMLID_7_" class="st0" d="M144.9,136.6c-0.6,2.4-0.9,4.9-0.9,7.4c0,11.6,6.4,22.2,16.2,27.8c-0.1,1.4-0.2,2.8-0.2,4.2
				c0,26.5,21.5,48,48,48c16.7,0,31.4-8.6,40-21.5c8.6,13,23.3,21.5,40,21.5c26.5,0,48-21.5,48-48c0-1.4-0.1-2.8-0.2-4.2
				c9.9-5.6,16.2-16.2,16.2-27.8c0-2.5-0.3-5-0.9-7.4C361.5,129.2,368,117,368,104c0-12.9-6.4-25-16.8-32.5c0.5-2.4,0.8-4.9,0.8-7.5
				c0-20.4-15.4-37.1-35.1-39.5C310.8,10.1,296.6,0,280,0c-13.1,0-24.7,6.4-32,16.2C240.7,6.4,229.1,0,216,0
				c-16.6,0-30.8,10.1-36.9,24.5C159.4,26.9,144,43.6,144,64c0,2.6,0.3,5.1,0.8,7.5C134.4,79,128,91.1,128,104
				C128,117,134.5,129.2,144.9,136.6z M256,40c0-13.2,10.8-24,24-24s24,10.8,24,24s-10.8,24-24,24v16c21.6,0,39.1-17.2,39.9-38.6
				C329.2,44.7,336,53.5,336,64c0,13.2-10.8,24-24,24v16c13.5,0,25.5-6.8,32.7-17.1c4.6,4.5,7.3,10.6,7.3,17.1
				c0,9.3-5.5,17.9-14.1,21.8l-7.6,3.5l3.8,7.5c1.2,2.4,1.9,4.8,1.9,7.3c0,4.3-1.9,8.2-4.8,11.2C323.4,139.1,307,128,288,128v16
				c17.6,0,32,14.4,32,32s-14.4,32-32,32s-32-14.4-32-32V40z M151.3,86.9c7.2,10.3,19.2,17.1,32.7,17.1V88c-13.2,0-24-10.8-24-24
				c0-10.5,6.8-19.3,16.1-22.6C176.9,62.8,194.4,80,216,80V64c-13.2,0-24-10.8-24-24s10.8-24,24-24s24,10.8,24,24v136
				c0,17.6-14.4,32-32,32s-32-14.4-32-32s14.4-32,32-32v-16c-19,0-35.4,11.1-43.2,27.2c-2.9-2.9-4.8-6.9-4.8-11.2
				c0-2.4,0.6-4.9,1.9-7.3l3.8-7.5l-7.6-3.5c-8.6-3.9-14.1-12.4-14.1-21.8C144,97.5,146.7,91.3,151.3,86.9z"/>
			<rect id="XMLID_6_" x="32" y="448" class="st0" width="16" height="16"/>
			<rect id="XMLID_5_" x="64" y="448" class="st0" width="16" height="16"/>
			<rect id="XMLID_4_" x="96" y="448" class="st0" width="16" height="16"/>
		</g>
	</g>
</g>
</svg>
