<svg width="50" height="50" viewBox="0 0 50 50" fill="none" xmlns="http://www.w3.org/2000/svg">
<g clip-path="url(#clip0)">
<path d="M27.9385 9.97435L25.0002 11.5543L22.0619 9.97102C21.6564 9.75286 21.1508 9.90471 20.9327 10.3102C20.7145 10.7156 20.8664 11.2212 21.2719 11.4393L24.1668 13.0002V15.0002C24.1668 15.4604 24.5399 15.8335 25.0002 15.8335C25.4604 15.8335 25.8335 15.4604 25.8335 15.0002V13.0002L28.7285 11.4443C29.134 11.2262 29.2858 10.7207 29.0677 10.3152C28.8495 9.90971 28.344 9.75786 27.9385 9.97601V9.97435Z" fill="#D04F45"/>
<path d="M36.6668 18.3335V6.6668C36.6667 6.37368 36.5126 6.10217 36.261 5.9518C36.2502 5.94514 36.2377 5.94264 36.226 5.9368L25.3927 0.103469C25.1461 -0.0292813 24.8493 -0.0292813 24.6027 0.103469L13.7693 5.9368C13.7577 5.94264 13.7452 5.94514 13.7343 5.9518C13.4846 6.10341 13.3326 6.37469 13.3335 6.6668V18.3335C13.3337 18.6399 13.502 18.9215 13.7718 19.0668L24.6052 24.9001C24.8518 25.0329 25.1486 25.0329 25.3952 24.9001L36.2285 19.0668C36.4983 18.9215 36.6667 18.6399 36.6668 18.3335ZM35.0002 17.8335L25.8335 22.7718V20.0001C25.8335 19.5399 25.4604 19.1668 25.0002 19.1668C24.5399 19.1668 24.1668 19.5399 24.1668 20.0001V22.7718L15.0002 17.8335V8.06097L17.1052 9.19264C17.5106 9.41079 18.0162 9.25894 18.2343 8.85347C18.4525 8.448 18.3006 7.94245 17.8952 7.7243L15.926 6.6668L25.0002 1.78014L34.0743 6.6668L32.1052 7.72514C31.6997 7.94329 31.5478 8.44883 31.766 8.8543C31.9841 9.25977 32.4897 9.41162 32.8952 9.19347L35.0002 8.06097V17.8335Z" fill="#D04F45"/>
<path d="M41.4167 21.8666L45 20.7983C45.291 20.718 45.5159 20.4866 45.5878 20.1934C45.6597 19.9002 45.5674 19.5911 45.3465 19.3853C45.1256 19.1795 44.8107 19.1092 44.5233 19.2016L38.9333 20.8683C38.4925 21 38.2418 21.4641 38.3733 21.905L40.04 27.495C40.1454 27.848 40.47 28.0899 40.8383 28.09C40.919 28.09 40.9992 28.0785 41.0767 28.0558C41.2886 27.9926 41.4666 27.8477 41.5717 27.6531C41.6767 27.4585 41.7001 27.2301 41.6367 27.0183L40.5208 23.2758C45.495 26.0083 48.3333 29.8666 48.3333 33.9683C48.3333 41.8891 37.8658 48.3333 25 48.3333C12.1342 48.3333 1.66667 41.8891 1.66667 33.9683C1.66667 29.875 4.50833 26.0125 9.48333 23.2791L8.36833 27.0183C8.30492 27.2301 8.3283 27.4585 8.43334 27.6531C8.53837 27.8477 8.71644 27.9926 8.92833 28.0558C9.00575 28.0785 9.086 28.09 9.16667 28.09C9.53504 28.0899 9.85965 27.848 9.965 27.495L11.6317 21.905C11.7632 21.4641 11.5125 21 11.0717 20.8683L5.48167 19.2016C5.04456 19.0811 4.59128 19.3321 4.46157 19.7666C4.33187 20.2011 4.57334 20.6595 5.005 20.7983L8.58833 21.8675C3.12167 24.9008 0 29.2708 0 33.9683C0 42.8083 11.215 50 25 50C38.785 50 50 42.8083 50 33.9683C50 29.2633 46.8842 24.9 41.4167 21.8666Z" fill="#D04F45"/>
<path d="M17.5004 27.5C16.0633 27.4967 14.7864 28.4161 14.3338 29.78C14.1886 30.2172 14.4253 30.6894 14.8625 30.8346C15.2997 30.9798 15.7719 30.7431 15.9171 30.3058C16.1865 29.4985 17.0208 29.0238 17.8524 29.2048C18.684 29.3857 19.2457 30.1641 19.1553 31.0104C19.0649 31.8566 18.3515 32.4988 17.5004 32.5C17.0402 32.5 16.6671 32.8731 16.6671 33.3333C16.6671 33.7936 17.0402 34.1667 17.5004 34.1667C18.3515 34.1679 19.0649 34.8101 19.1553 35.6563C19.2457 36.5026 18.684 37.281 17.8524 37.4619C17.0208 37.6428 16.1865 37.1681 15.9171 36.3608C15.7719 35.9236 15.2997 35.6869 14.8625 35.8321C14.4253 35.9773 14.1886 36.4494 14.3338 36.8867C14.7777 38.2163 16.0061 39.1261 17.4074 39.1632C18.8087 39.2002 20.0835 38.3566 20.5971 37.0523C21.1107 35.7479 20.7533 34.2616 19.7029 33.3333C20.7423 32.4167 21.1061 30.9525 20.6166 29.6559C20.127 28.3593 18.8863 27.501 17.5004 27.5Z" fill="#D04F45"/>
<path d="M25.0003 39.1671C26.952 39.0433 28.4395 37.3699 28.3336 35.4171C28.4395 33.4642 26.952 31.7909 25.0003 31.6671C24.6205 31.6719 24.2451 31.7494 23.8944 31.8954C24.2389 30.6888 25.063 29.6761 26.1745 29.0937C26.4555 28.9781 26.6513 28.7186 26.6854 28.4166C26.7195 28.1146 26.5865 27.8179 26.3383 27.6425C26.0901 27.4671 25.7661 27.4408 25.4928 27.5737C21.7103 29.2712 21.6669 34.7671 21.6669 35.0004C21.6721 35.0438 21.6807 35.0867 21.6928 35.1287C21.6861 35.2254 21.6669 35.3187 21.6669 35.4171C21.5611 37.3699 23.0485 39.0433 25.0003 39.1671ZM25.0003 33.3337C26.0273 33.4641 26.7652 34.3865 26.667 35.4171C26.7652 36.4477 26.0273 37.37 25.0003 37.5004C23.9732 37.37 23.2353 36.4477 23.3336 35.4171C23.2353 34.3865 23.9732 33.4641 25.0003 33.3337Z" fill="#D04F45"/>
<path d="M29.167 30.8333V35.8333C29.167 37.6743 30.6594 39.1667 32.5003 39.1667C34.3413 39.1667 35.8337 37.6743 35.8337 35.8333V30.8333C35.8337 28.9924 34.3413 27.5 32.5003 27.5C30.6594 27.5 29.167 28.9924 29.167 30.8333ZM34.167 30.8333V35.8333C34.167 36.7538 33.4208 37.5 32.5003 37.5C31.5799 37.5 30.8337 36.7538 30.8337 35.8333V30.8333C30.8337 29.9129 31.5799 29.1667 32.5003 29.1667C33.4208 29.1667 34.167 29.9129 34.167 30.8333Z" fill="#D04F45"/>
</g>
<defs>
<clipPath id="clip0">
<rect width="50" height="50" fill="white"/>
</clipPath>
</defs>
</svg>
