<svg width="56" height="58" viewBox="0 0 56 58" fill="none" xmlns="http://www.w3.org/2000/svg">
<path d="M39.3203 5.31047L40.1294 3.61828C38.965 3.06047 37.7519 2.58141 36.5247 2.19141L35.9575 3.97828C37.1022 4.34203 38.2338 4.79016 39.3203 5.31047Z" fill="#D04F45"/>
<path d="M28.8418 2.76326C30.0502 2.8017 31.2615 2.92358 32.4427 3.12514L32.7577 1.27732C31.493 1.0617 30.1965 0.930449 28.9027 0.890137L28.8418 2.76326Z" fill="#D04F45"/>
<path d="M42.4688 7.09329C43.4194 7.72142 44.3372 8.41985 45.1978 9.16798L46.4278 7.75235C45.5053 6.95079 44.5209 6.20267 43.5028 5.52954L42.4688 7.09329Z" fill="#D04F45"/>
<path d="M6.4375 16.8124C6.4375 16.1355 6.18719 15.5215 5.78687 15.0358C9.38125 9.31895 15.1225 5.1377 21.6625 3.51864V3.51958C22.8287 3.22989 24.0269 3.02083 25.2259 2.89427L25.03 1.03052C23.7466 1.16552 22.4622 1.39052 21.2125 1.69989V1.69896C14.1972 3.4352 8.03969 7.92302 4.18937 14.0571C4.0075 14.0196 3.81812 13.9999 3.625 13.9999C2.07437 13.9999 0.8125 15.2618 0.8125 16.8124C0.8125 18.363 2.07437 19.6249 3.625 19.6249C5.17562 19.6249 6.4375 18.363 6.4375 16.8124ZM3.625 17.7499C3.1075 17.7499 2.6875 17.3299 2.6875 16.8124C2.6875 16.2949 3.1075 15.8749 3.625 15.8749C4.1425 15.8749 4.5625 16.2949 4.5625 16.8124C4.5625 17.3299 4.1425 17.7499 3.625 17.7499Z" fill="#D04F45"/>
<path d="M23.2422 56.7231C24.5069 56.9387 25.8034 57.0699 27.0972 57.1102L27.1572 55.2371C25.9488 55.1987 24.7375 55.0768 23.5563 54.8752L23.2422 56.7231Z" fill="#D04F45"/>
<path d="M15.8706 54.3809C17.035 54.9387 18.2481 55.4178 19.4753 55.8078L20.0425 54.0209C18.8978 53.6572 17.7662 53.21 16.6797 52.6887L15.8706 54.3809Z" fill="#D04F45"/>
<path d="M9.57227 50.2477C10.4948 51.0492 11.4791 51.7973 12.4973 52.4705L13.5323 50.9067C12.5816 50.2786 11.6638 49.5802 10.8032 48.832L9.57227 50.2477Z" fill="#D04F45"/>
<path d="M52.3754 38.375C50.8247 38.375 49.5629 39.6369 49.5629 41.1875C49.5629 41.8644 49.8132 42.4784 50.2135 42.9641C46.6191 48.6809 40.8778 52.8622 34.3379 54.4813V54.4803C33.1716 54.77 31.9735 54.9791 30.7744 55.1056L30.9704 56.9694C32.2538 56.8344 33.5382 56.6094 34.7879 56.3V56.3009C41.8032 54.5647 47.9607 50.0769 51.81 43.9428C51.9928 43.9803 52.1822 44 52.3754 44C53.926 44 55.1879 42.7381 55.1879 41.1875C55.1879 39.6369 53.926 38.375 52.3754 38.375ZM52.3754 42.125C51.8579 42.125 51.4379 41.705 51.4379 41.1875C51.4379 40.67 51.8579 40.25 52.3754 40.25C52.8929 40.25 53.3129 40.67 53.3129 41.1875C53.3129 41.705 52.8929 42.125 52.3754 42.125Z" fill="#D04F45"/>
<path d="M50.5 29.0019C50.5 29 50.5 29 50.5 28.9981C50.4991 16.5931 40.4059 6.5 28 6.5C15.5941 6.5 5.50094 16.5931 5.5 28.9981V29.0019C5.50094 41.4069 15.5941 51.5 28 51.5C40.4059 51.5 50.4991 41.4069 50.5 29.0019ZM28 8.375C38.4681 8.375 47.1334 16.2162 48.4469 26.3319C45.0278 22.7572 37.2456 15.875 28 15.875C18.7544 15.875 10.9722 22.7572 7.55312 26.3319C8.86656 16.2162 17.5319 8.375 28 8.375ZM32.7869 18.8337L30.9091 22.0869C30.2903 21.8253 29.6275 21.6509 28.9384 21.5647V17.8006C29.0247 17.8053 29.1119 17.8091 29.1981 17.8147C30.4703 17.9506 31.675 18.3088 32.7869 18.8337ZM28 34.625C24.8978 34.625 22.375 32.1022 22.375 29C22.375 25.8978 24.8978 23.375 28 23.375C31.1022 23.375 33.625 25.8978 33.625 29C33.625 32.1022 31.1022 34.625 28 34.625ZM22.0347 24.4728L18.7684 22.5875C19.5334 21.4887 20.4887 20.5334 21.5875 19.7684L23.4728 23.0347C22.9309 23.4472 22.4472 23.9309 22.0347 24.4728ZM23.4728 34.9653L21.5875 38.2316C20.4887 37.4666 19.5334 36.5112 18.7684 35.4125L22.0347 33.5272C22.4472 34.0691 22.9309 34.5528 23.4728 34.9653ZM33.9653 33.5272L37.2316 35.4125C36.4666 36.5112 35.5112 37.4666 34.4125 38.2316L32.5272 34.9653C33.0691 34.5528 33.5528 34.0691 33.9653 33.5272ZM32.5272 23.0347L34.4125 19.7684C35.5112 20.5334 36.4666 21.4887 37.2316 22.5875L33.9653 24.4728C33.5528 23.9309 33.0691 23.4472 32.5272 23.0347ZM27.0625 17.8016V21.5656C26.3734 21.6519 25.7106 21.8263 25.0919 22.0878L23.2141 18.8347C24.3259 18.3097 25.5306 17.9516 26.8038 17.8166C26.89 17.8091 26.9762 17.8063 27.0625 17.8016ZM17.8337 24.2131L21.0869 26.0909C20.8253 26.7097 20.6509 27.3725 20.5647 28.0616H16.7969C16.9112 26.6947 17.2731 25.4 17.8337 24.2131ZM20.5647 29.9375C20.6509 30.6266 20.8253 31.2894 21.0869 31.9081L17.8337 33.7859C17.2731 32.6 16.9112 31.3053 16.7969 29.9366H20.5647V29.9375ZM23.2131 39.1663L25.0909 35.9131C25.7097 36.1747 26.3725 36.3491 27.0616 36.4353V40.1994C26.9753 40.1947 26.8881 40.1909 26.8019 40.1853C25.5297 40.0494 24.325 39.6912 23.2131 39.1663ZM28.9375 40.1984V36.4344C29.6266 36.3481 30.2894 36.1738 30.9081 35.9122L32.7859 39.1653C31.6741 39.6903 30.4694 40.0484 29.1963 40.1834C29.11 40.1909 29.0238 40.1937 28.9375 40.1984ZM38.1663 33.7869L34.9131 31.9091C35.1747 31.2903 35.3491 30.6275 35.4353 29.9384H39.2031C39.0887 31.3053 38.7269 32.6 38.1663 33.7869ZM35.4353 28.0625C35.3491 27.3734 35.1747 26.7106 34.9131 26.0919L38.1663 24.2141C38.7269 25.4 39.0887 26.6947 39.2031 28.0634H35.4353V28.0625ZM14.875 29C14.875 32.1828 16.015 35.1031 17.9069 37.3775C12.8003 34.5678 8.97625 30.4991 7.66563 28.9991C8.97625 27.4981 12.8003 23.4247 17.9134 20.615C16.0178 22.8903 14.875 25.8134 14.875 29ZM41.125 29C41.125 25.8172 39.985 22.8969 38.0931 20.6225C43.1997 23.4322 47.0238 27.5009 48.3344 29.0009C47.0238 30.5019 43.1997 34.5753 38.0866 37.385C39.9822 35.1097 41.125 32.1866 41.125 29ZM28 49.625C17.5319 49.625 8.86656 41.7838 7.55312 31.6681C10.9722 35.2428 18.7544 42.125 28 42.125C37.2456 42.125 45.0278 35.2428 48.4469 31.6681C47.1334 41.7838 38.4681 49.625 28 49.625Z" fill="#D04F45"/>
</svg>
