<?xml version="1.0" encoding="utf-8"?>
<!-- Generator: Adobe Illustrator 22.1.0, SVG Export Plug-In . SVG Version: 6.00 Build 0)  -->
<svg version="1.1" id="Layer_1" xmlns="http://www.w3.org/2000/svg" xmlns:xlink="http://www.w3.org/1999/xlink" x="0px" y="0px"
	 viewBox="0 0 56 58" style="enable-background:new 0 0 56 58;" xml:space="preserve">
<style type="text/css">
	.st0{fill:none;stroke:#D04F45;stroke-width:1.6;stroke-miterlimit:10;}
</style>
<path id="XMLID_50_" class="st0" d="M34.6,29c0,3.6-2.9,6.6-6.6,6.6s-6.6-2.9-6.6-6.6s2.9-6.6,6.6-6.6S34.6,25.4,34.6,29z M28,16.8
	c-6.7,0-12.2,5.5-12.2,12.2S21.3,41.2,28,41.2S40.2,35.7,40.2,29S34.7,16.8,28,16.8z M28,7.3C16,7.3,6.3,17,6.3,29S16,50.7,28,50.7
	S49.7,41,49.7,29S40,7.3,28,7.3z M3.6,14.9c-1,0-1.9,0.8-1.9,1.9s0.8,1.9,1.9,1.9s1.9-0.8,1.9-1.9S4.7,14.9,3.6,14.9z M43,6.2
	c1,0.7,1.9,1.4,2.8,2.2 M36.1,3c1.2,0.4,2.5,0.9,3.6,1.4 M28.9,1.7c1.3,0,2.5,0.2,3.7,0.4 M4.5,15.1C8.8,7.9,16.3,2.8,25.1,1.9
	 M52.4,43.1c1,0,1.9-0.8,1.9-1.9s-0.8-1.9-1.9-1.9s-1.9,0.8-1.9,1.9S51.3,43.1,52.4,43.1z M13,51.8c-1-0.7-1.9-1.4-2.8-2.2 M19.9,55
	c-1.2-0.4-2.5-0.9-3.6-1.4 M27.1,56.3c-1.3,0-2.5-0.2-3.7-0.4 M51.5,42.8c-4.3,7.3-11.8,12.4-20.6,13.3 M28,16.8v5.6 M21.9,18.4
	l2.8,4.9 M17.4,22.9l4.9,2.8 M15.8,29h5.6 M17.4,35.1l4.9-2.8 M21.9,39.6l2.8-4.9 M28,41.2v-5.6 M34.1,39.6l-2.8-4.9 M33.7,32.3
	l4.9,2.8 M40.2,29h-5.6 M33.7,25.7l4.9-2.8 M31.3,23.3l2.8-4.9 M28,16.8C16,16.8,6.3,29,6.3,29S16,41.2,28,41.2S49.7,29,49.7,29
	S40,16.8,28,16.8z"/>
</svg>
