<?xml version="1.0" encoding="utf-8"?>
<!-- Generator: Adobe Illustrator 22.1.0, SVG Export Plug-In . SVG Version: 6.00 Build 0)  -->
<svg version="1.1" id="Layer_1" xmlns="http://www.w3.org/2000/svg" xmlns:xlink="http://www.w3.org/1999/xlink" x="0px" y="0px"
	 viewBox="0 0 512 512" style="enable-background:new 0 0 512 512;" xml:space="preserve">
<style type="text/css">
	.st0{fill:#D04F45;}
</style>
<g id="device">
	<path id="XMLID_24_" class="st0" d="M493.2,115c-1.5-1.9-3.8-2.9-6.2-3h-7V24c0-4.4-3.6-8-8-8H312c-4.4,0-8,3.6-8,8v88h-7
		c-2.4,0-4.7,1.1-6.2,3c-1.5,1.9-2.1,4.4-1.6,6.7l7,32c0.8,3.7,4.1,6.3,7.8,6.3h176c3.8,0,7-2.6,7.8-6.3l7-32
		C495.3,119.3,494.7,116.8,493.2,115z M320,32h144v80h-56c-4.4,0-8,3.6-8,8h-16c0-4.4-3.6-8-8-8h-56V32z M473.6,144H310.4l-3.4-16
		h61c0,4.4,3.6,8,8,8h32c4.4,0,8-3.6,8-8h61L473.6,144z"/>
	<path id="XMLID_19_" class="st0" d="M168,336H40c-13.2,0-24,10.8-24,24v80c0,13.2,10.8,24,24,24h30.3L65,486.1
		c-0.6,2.4-0.1,4.9,1.4,6.9c1.5,1.9,3.9,3.1,6.3,3h62.6c2.5,0,4.8-1.1,6.3-3c1.5-1.9,2.1-4.5,1.4-6.9l-5.4-22.1H168
		c13.2,0,24-10.8,24-24v-80C192,346.8,181.2,336,168,336z M82.9,480l3.9-16h34.4l3.9,16H82.9z M176,440c0,4.4-3.6,8-8,8H40
		c-4.4,0-8-3.6-8-8v-8h144V440z M176,416H32v-56c0-4.4,3.6-8,8-8h128c4.4,0,8,3.6,8,8V416z"/>
	<path id="XMLID_15_" class="st0" d="M472,320h-64c-13.2,0-24,10.8-24,24v128c0,13.2,10.8,24,24,24h64c13.2,0,24-10.8,24-24V344
		C496,330.8,485.2,320,472,320z M456,336c0,4.4-3.6,8-8,8h-16c-4.4,0-8-3.6-8-8H456z M480,472c0,4.4-3.6,8-8,8h-64c-4.4,0-8-3.6-8-8
		V344c0-4.4,3.6-8,8-8c0,13.2,10.8,24,24,24h16c13.2,0,24-10.8,24-24c4.4,0,8,3.6,8,8V472z"/>
	<path id="XMLID_12_" class="st0" d="M136,16H40c-13.2,0-24,10.8-24,24v128c0,13.2,10.8,24,24,24h96c13.2,0,24-10.8,24-24V40
		C160,26.8,149.2,16,136,16z M144,168c0,4.4-3.6,8-8,8H40c-4.4,0-8-3.6-8-8V40c0-4.4,3.6-8,8-8h96c4.4,0,8,3.6,8,8V168z"/>
	<rect id="XMLID_11_" x="80" y="144" class="st0" width="16" height="16"/>
	<path id="XMLID_8_" class="st0" d="M337,232.8l-19.2-2.4l11.9-15.3c2.5-3.2,2.2-7.7-0.7-10.6L307.4,183c-2.8-2.9-7.4-3.2-10.6-0.7
		l-15.3,11.9l-2.4-19.2c-0.5-4-3.9-7-8-7h-30.4c-4.1,0-7.5,3-8,7l-2.4,19.2l-15.3-11.9c-3.2-2.5-7.7-2.1-10.6,0.7L183,204.6
		c-2.9,2.8-3.2,7.4-0.7,10.6l11.9,15.3l-19.2,2.4c-4,0.5-7,3.9-7,8v30.4c0,4.1,3,7.5,7,8l19.2,2.4l-11.9,15.3
		c-2.5,3.2-2.2,7.7,0.7,10.6l21.5,21.5c2.8,2.9,7.4,3.2,10.6,0.7l15.3-11.9l2.4,19.2c0.5,4,3.9,7,8,7h30.4c4.1,0,7.5-3,8-7l2.4-19.2
		l15.3,11.9c3.2,2.5,7.7,2.1,10.6-0.7l21.5-21.5c2.9-2.8,3.2-7.4,0.7-10.6l-11.9-15.3l19.2-2.4c4-0.5,7-3.9,7-8v-30.4
		C344,236.7,341,233.3,337,232.8z M328,264.2l-19,2.4c-3,0.4-5.6,2.4-6.6,5.4c-0.7,1.9-1.5,3.8-2.4,5.7c-1.4,2.7-1,6,0.9,8.4
		l11.8,15.1l-11.6,11.6L286,301c-2.4-1.9-5.7-2.3-8.4-0.9c-1.9,0.9-3.8,1.7-5.8,2.4c-2.9,1-4.9,3.5-5.3,6.6l-2.4,19h-16.3l-2.4-19
		c-0.4-3-2.4-5.6-5.3-6.6c-2-0.7-3.9-1.5-5.8-2.4c-2.7-1.4-6-1-8.4,0.9l-15.1,11.8l-11.6-11.6L211,286c1.9-2.4,2.3-5.7,0.9-8.4
		c-0.9-1.8-1.7-3.8-2.4-5.7c-1-2.9-3.5-5-6.6-5.4l-19-2.4v-16.3l19-2.4c3-0.4,5.6-2.4,6.6-5.4c0.7-1.9,1.5-3.8,2.4-5.7
		c1.4-2.7,1-6-0.9-8.4l-11.8-15.1l11.6-11.6L226,211c2.4,1.9,5.7,2.3,8.4,0.9c1.8-0.9,3.8-1.7,5.7-2.4c2.9-1,5-3.5,5.4-6.6l2.4-19
		h16.3l2.4,19c0.4,3,2.4,5.6,5.4,6.6c1.9,0.7,3.8,1.5,5.7,2.4c2.7,1.4,6,1,8.4-0.9l15.1-11.8l11.6,11.6L301,226
		c-1.9,2.4-2.3,5.7-0.9,8.4c0.9,1.8,1.7,3.8,2.4,5.7c1,2.9,3.5,5,6.6,5.4l19,2.4L328,264.2z"/>
	<path id="XMLID_5_" class="st0" d="M296,256c0-22.1-17.9-40-40-40s-40,17.9-40,40s17.9,40,40,40C278.1,296,296,278.1,296,256z
		 M256,280c-13.3,0-24-10.7-24-24c0-13.3,10.7-24,24-24c13.3,0,24,10.7,24,24C280,269.3,269.3,280,256,280z"/>
	<path id="XMLID_4_" class="st0" d="M360,240v16h32c4.4,0,8-3.6,8-8v-72h-16v64H360z"/>
	<path id="XMLID_3_" class="st0" d="M88,256v64h16v-56h48v-16H96C91.6,248,88,251.6,88,256z"/>
	<path id="XMLID_2_" class="st0" d="M248,152h16v-48c0-4.4-3.6-8-8-8h-80v16h72V152z"/>
	<path id="XMLID_1_" class="st0" d="M264,360h-16v64c0,4.4,3.6,8,8,8h112v-16H264V360z"/>
</g>
</svg>
