<?xml version="1.0" encoding="utf-8"?>
<!-- Generator: Adobe Illustrator 22.1.0, SVG Export Plug-In . SVG Version: 6.00 Build 0)  -->
<svg version="1.1" id="Layer_2" xmlns="http://www.w3.org/2000/svg" xmlns:xlink="http://www.w3.org/1999/xlink" x="0px" y="0px"
	 viewBox="0 0 512 512" style="enable-background:new 0 0 512 512;" xml:space="preserve">
<style type="text/css">
	.st0{fill:none;stroke:#D04F45;stroke-width:14;stroke-miterlimit:10;}
	.st1{fill:none;stroke:#D04F45;stroke-width:14;stroke-linejoin:round;stroke-miterlimit:10;}
</style>
<circle id="XMLID_2_" class="st0" cx="336.5" cy="248.5" r="40.5"/>
<circle id="XMLID_4_" class="st0" cx="336.5" cy="248.5" r="64.5"/>
<path id="XMLID_6_" class="st1" d="M123,89c0,0,45-81,162-81c186,0,266,162,191,263c-15,20.2-27.1,31.5-35,44c-26,41-19,57-9,69
	l-167,88c0,0,3-94-116-58c-67.8,20.5-57.1-22.7-53-37c9-31-10-31-12-39s13-13,13-13s-18-4-20-9s13-22,6-31s-55-12-31-42"/>
<polyline id="XMLID_9_" class="st1" points="246,218 133,240 8,240 8,88 129,88 246,121 "/>
<line id="XMLID_10_" class="st0" x1="48" y1="88" x2="48" y2="239"/>
<line id="XMLID_12_" class="st0" x1="433" y1="208" x2="447" y2="208"/>
<line id="XMLID_13_" class="st0" x1="465" y1="208" x2="479" y2="208"/>
<line id="XMLID_30_" class="st1" x1="399" y1="232" x2="497" y2="232"/>
<path id="XMLID_32_" class="st1" d="M373.5,232"/>
<path id="XMLID_31_" class="st1" d="M299.5,232"/>
<polyline id="XMLID_15_" class="st1" points="484.1,111.4 248,111.4 248,232 274,232 "/>
<polyline id="XMLID_17_" class="st0" points="472,136 344,136 344,167 479,167 "/>
<polyline id="XMLID_20_" class="st0" points="48,119.6 127,119.6 246,150.5 "/>
<polyline id="XMLID_19_" class="st0" points="48,152 127,152 246,182.9 "/>
<path id="XMLID_22_" class="st0" d="M299,505c0,0,99,0,125,0s82-29,80-90c-0.6-19-25-26-31-23s-172,92-181,97S286,505,299,505z"/>
<line id="XMLID_24_" class="st0" x1="344" y1="461" x2="344" y2="505"/>
<line id="XMLID_25_" class="st0" x1="376" y1="444" x2="376" y2="505"/>
<line id="XMLID_26_" class="st0" x1="408" y1="427" x2="408" y2="505"/>
<line id="XMLID_27_" class="st0" x1="440" y1="410" x2="440" y2="502"/>
<line id="XMLID_28_" class="st0" x1="472" y1="392" x2="472" y2="485"/>
</svg>
