<svg width="91" height="54" viewBox="0 0 91 54" fill="none" xmlns="http://www.w3.org/2000/svg">
<path d="M22.5427 4.95001C19.5712 1.97854 6.94277 1.2358 2.85702 0.864258C2.48565 0.864258 2.11411 0.864258 1.74274 1.23563C1.37137 1.60717 1 2.35008 1 2.72145V36.1499C1 37.2642 1.74291 38.0071 2.85719 38.0071H14C14.7429 38.0071 15.4857 37.6357 15.8572 36.8928C15.8572 35.7785 22.5429 16.0928 23.2858 6.43584C23.2856 6.0643 23.2856 5.32156 22.5427 4.95001Z" stroke="#D04F45"/>
<path d="M62.2854 13.8642C58.5712 12.75 55.2284 11.2643 52.2569 10.15C45.5712 7.17855 42.5997 8.66438 36.657 14.6072C34.057 17.2071 32.1998 20.9215 32.5712 22.4071C32.5712 22.7785 32.5712 22.7785 33.3141 23.15C35.1713 23.8929 37.7712 24.2643 40.3712 20.1786C40.7425 19.8072 41.1141 19.4356 41.8568 19.4356C42.9711 19.4356 43.3425 19.0643 44.4568 18.6927C45.1997 18.3214 45.9424 17.9498 47.0567 17.5785C47.4281 17.5785 47.4281 17.5785 47.7996 17.5785C48.171 17.5785 48.9139 17.9498 49.2852 17.9498C51.1426 19.8072 54.4855 22.4071 57.8283 25.3786C63.0283 29.4644 68.2282 33.9215 70.8283 37.2643H71.1997C68.5997 29.8357 64.1426 17.2071 62.2854 13.8642Z" stroke="#585261"/>
<path d="M88.2853 4.57861C73.7997 4.57861 65.6283 8.29282 65.2568 8.29282C64.8854 8.66419 64.5139 9.03574 64.1425 9.40711C64.1425 9.77847 64.1425 10.5214 64.5139 10.8928C66.7424 14.607 74.171 35.0356 75.2853 40.2354C75.6567 40.9783 76.3996 41.7211 77.1425 41.7211H88.2853C89.3996 41.7211 90.1425 40.9782 90.1425 39.8639V6.43546C90.1425 5.32152 89.3996 4.57861 88.2853 4.57861Z" stroke="#585261"/>
<path d="M68.2283 40.9785C66.7426 37.6357 60.4283 32.8072 54.8569 28.35C51.8856 25.7499 48.9141 23.5214 46.6856 21.6642C46.3142 22.0356 45.5713 22.0356 45.5713 22.4071C44.457 22.7785 44.0856 23.15 42.5998 23.15C39.6285 26.8642 35.9141 28.3499 31.8285 26.8642C29.9713 26.4929 28.8571 25.007 28.4857 23.5214C27.7428 19.8072 31.0856 14.6071 33.6857 12.0072H26.2571C24.7715 19.4358 22.1714 29.0928 20.3144 34.2928C21.8 35.7785 23.2858 37.6357 24.4001 38.3786C31.4572 44.3214 39.6287 50.2643 41.1143 51.3786C42.2286 52.1215 44.4572 52.8642 45.5715 52.8642C45.9428 52.8642 46.3144 52.8642 46.6857 52.8642L40.7428 46.9213C39.9999 46.1784 39.9999 45.0641 40.7428 44.3214C41.4857 43.5786 42.6 43.5784 43.3427 44.3214L50.7713 51.7499C51.5142 52.4929 52.257 52.1213 52.9999 52.1213C54.1142 51.7499 54.4855 51.007 54.8571 49.8928L46.3142 41.3499C45.5713 40.607 45.5713 39.4927 46.3142 38.7499C47.0571 38.0072 48.1714 38.007 48.9141 38.7499L58.1997 48.0356C58.5711 48.4069 60.0569 48.4069 61.1712 48.0356C61.5426 47.6642 62.2855 47.2926 62.6569 46.5499L52.257 36.1498C51.5141 35.4069 51.5141 34.2926 52.257 33.5499C52.9999 32.8072 54.1142 32.807 54.8569 33.5499L65.6283 44.3214C66.3712 44.6927 67.114 44.3214 67.8569 43.95C68.2283 43.5784 68.9712 42.4642 68.2283 40.9785Z" stroke="#D04F45"/>
</svg>
