<svg width="68" height="68" viewBox="0 0 68 68" fill="none" xmlns="http://www.w3.org/2000/svg">
<path d="M39.7996 66.8629H28.1982V61.0622C28.1982 54.2555 23.1474 48.6061 16.5969 47.665V53.3042L1 41.7267L16.597 30.1492V36.0011C20.7309 36.3229 24.711 37.6713 28.1983 39.9161V15.5596H22.2418L33.9989 0.864258L45.7561 15.5596H39.7996V24.4476C43.2869 22.2027 47.267 20.8543 51.4009 20.5327V14.6808L66.9984 26.2583L51.4009 37.8357V32.1967C44.8504 33.1378 39.7996 38.7871 39.7996 45.5939V66.8629Z" stroke="#D04F45" stroke-width="0.999982"/>
<path d="M47.5338 47.5286H51.4009V51.3957H47.5338V47.5286Z" stroke="#585261" stroke-width="0.999982"/>
<path d="M55.268 47.5286H66.9982V51.3957H55.268V47.5286Z" stroke="#585261" stroke-width="0.999982"/>
<path d="M47.5338 55.2629H51.4009V59.1301H47.5338V55.2629Z" stroke="#585261" stroke-width="0.999982"/>
<path d="M55.268 55.2629H66.9982V59.13H55.268V55.2629Z" stroke="#585261" stroke-width="0.999982"/>
<path d="M47.5338 62.9971H51.4009V66.8642H47.5338V62.9971Z" stroke="#585261" stroke-width="0.999982"/>
<path d="M55.268 62.9971H66.9982V66.8642H55.268V62.9971Z" stroke="#585261" stroke-width="0.999982"/>
</svg>
