<svg width="69" height="69" viewBox="0 0 69 69" fill="none" xmlns="http://www.w3.org/2000/svg">
<path d="M34.5802 36.4238C35.6659 36.4238 36.549 35.5419 36.549 34.4578C36.549 33.3736 35.6659 32.4917 34.5802 32.4917C33.4945 32.4917 32.6113 33.3736 32.6113 34.4578C32.6113 35.5419 33.4945 36.4238 34.5802 36.4238V36.4238Z" stroke="#D04F45"/>
<path d="M47.9937 46.2546C50.8887 42.9908 52.4832 38.7903 52.4832 34.427C52.4832 29.6535 50.62 25.1672 47.2362 21.7954C43.8611 18.4312 39.3787 16.5799 34.6112 16.5799C34.5994 16.5799 34.5876 16.5799 34.5763 16.5799C24.7269 16.5988 16.7253 24.6157 16.7381 34.4516C16.7443 38.8165 18.3454 43.0159 21.2472 46.2766C23.1827 48.4516 24.2489 51.2022 24.2489 54.022V54.7579H32.6141V40.0123C30.3247 39.2016 28.6795 37.0184 28.6795 34.4577C28.6795 31.2088 31.3263 28.5657 34.5799 28.5657C37.8335 28.5657 40.4798 31.2088 40.4798 34.4577C40.4798 37.0184 38.8351 39.2016 36.5457 40.0123V54.7579H44.9729V54.0778C44.9729 51.2294 46.0458 48.4511 47.9937 46.2546V46.2546Z" stroke="#D04F45"/>
<path d="M24.2486 58.6838H44.9732V67.8642H24.2486V58.6838Z" stroke="#585261"/>
<path d="M32.6141 0.864258H36.5457V11.3398H32.6141V0.864258Z" stroke="#D04F45"/>
<path d="M19.4808 4.39435L24.7263 13.4662L21.3214 15.4291L16.0764 6.35733L19.4808 4.39435Z" stroke="#D04F45"/>
<path d="M6.4703 15.972L15.555 21.2096L13.5893 24.6096L4.50452 19.3715L6.4703 15.972Z" stroke="#D04F45"/>
<path d="M1 32.4948H11.4905V36.4207H1V32.4948Z" stroke="#D04F45"/>
<path d="M6.50057 52.9353L4.53479 49.5358L13.6195 44.2977L15.5853 47.6977L6.50057 52.9353Z" stroke="#D04F45"/>
<path d="M62.7529 52.8825L53.6682 47.6445L55.6339 44.245L64.7187 49.4825L62.7529 52.8825Z" stroke="#D04F45"/>
<path d="M57.7307 32.4333H68.2212V36.3588H57.7307V32.4333Z" stroke="#D04F45"/>
<path d="M62.7204 15.9177L64.6856 19.3172L55.6009 24.5552L53.6351 21.1552L62.7204 15.9177Z" stroke="#D04F45"/>
<path d="M47.847 15.3989L44.4427 13.4364L49.6882 4.36407L53.0925 6.32706L47.847 15.3989Z" stroke="#D04F45"/>
</svg>
