<svg width="52" height="69" viewBox="0 0 52 69" fill="none" xmlns="http://www.w3.org/2000/svg">
<path fill-rule="evenodd" clip-rule="evenodd" d="M47.0565 26.8649L50.6724 34.8995L43.0042 39.2838L42.019 43.9517L50.2047 61.2697L41.6616 61.3811L36.1307 67.8643L28.0841 50.8408L25.8365 52.8655L23.5883 50.8408L15.5422 67.8643L10.0108 61.3811L1.46771 61.2697L9.65344 43.9517L8.66873 39.2838L1 34.8995L4.61591 26.8649L1 18.8303L8.66873 14.4465L10.4867 5.83027L19.2787 6.77082L25.8365 0.864258L32.3937 6.77082L41.1862 5.82976L43.0042 14.446L50.6724 18.8303L47.0565 26.8649Z" stroke="#D04F45" stroke-width="0.999998"/>
<circle cx="25.5" cy="27.1606" r="12" stroke="#D04F45"/>
<circle cx="25.5" cy="27.1606" r="16" stroke="#585261"/>
</svg>
