<svg width="26" height="27" viewBox="0 0 26 27" fill="none" xmlns="http://www.w3.org/2000/svg">
<path d="M22.2924 4.15382C19.913 1.96078 16.9535 0.864258 13.4191 0.864258C9.70367 0.864258 6.53654 2.10982 3.92299 4.60627C1.30944 7.10271 0 10.206 0 13.9214C0 17.4824 1.24556 20.5431 3.73136 23.1087C6.22781 25.6744 9.58125 26.9572 13.8023 26.9572C16.3467 26.9572 18.8431 26.4355 21.2917 25.3869C22.0901 25.0463 22.4787 24.1307 22.154 23.327C21.8186 22.4966 20.8711 22.1133 20.0461 22.4646C17.9169 23.3802 15.8303 23.838 13.797 23.838C10.5607 23.838 8.05357 22.8532 6.27572 20.8784C4.50319 18.9089 3.61426 16.5935 3.61426 13.9373C3.61426 11.0523 4.56706 8.64636 6.46734 6.71414C8.3623 4.78725 10.6991 3.81848 13.467 3.81848C16.0167 3.81848 18.1724 4.61159 19.929 6.19782C21.6856 7.78405 22.5638 9.78014 22.5638 12.1861C22.5638 13.8309 22.1593 15.2042 21.3555 16.2954C20.5518 17.3919 19.7161 17.9348 18.8484 17.9348C18.38 17.9348 18.1458 17.6847 18.1458 17.179C18.1458 16.7691 18.1778 16.2901 18.2363 15.7365L19.2264 7.64033H15.8197L15.6015 8.43344C14.7338 7.72549 13.781 7.36886 12.7484 7.36886C11.1089 7.36886 9.70367 8.02358 8.53796 9.32769C7.36691 10.6318 6.78672 12.3138 6.78672 14.3685C6.78672 16.3752 7.30304 17.9987 8.34101 19.2283C9.37898 20.4632 10.6245 21.0754 12.083 21.0754C13.3871 21.0754 14.4996 20.5271 15.4258 19.4359C16.1231 20.4845 17.1504 21.0062 18.5078 21.0062C20.5039 21.0062 22.2285 20.1385 23.6816 18.3979C25.1348 16.6627 25.864 14.5654 25.864 12.1116C25.864 9.00299 24.677 6.34686 22.2924 4.15382ZM14.4464 16.4018C13.8449 17.2109 13.1263 17.6208 12.2906 17.6208C11.7211 17.6208 11.2633 17.3227 10.9173 16.7265C10.566 16.1304 10.3903 15.3905 10.3903 14.5016C10.3903 13.405 10.6352 12.5214 11.1249 11.8508C11.6146 11.1801 12.2214 10.8394 12.9453 10.8394C13.5734 10.8394 14.1323 11.0896 14.622 11.5953C15.1118 12.1009 15.3566 12.7716 15.3566 13.6126C15.3513 14.6613 15.0479 15.5874 14.4464 16.4018Z" fill="black"/>
</svg>
