<svg width="26" height="27" viewBox="0 0 26 27" fill="none" xmlns="http://www.w3.org/2000/svg">
<path d="M0.709576 11.8935C0.250246 10.6527 -0.0823729 9.38563 0.0179406 8.03931C0.0812966 7.21041 0.392797 6.50293 0.999958 5.92217C1.65992 5.29917 2.28292 4.64449 2.93231 4.01093C3.77706 3.17675 4.83827 3.18203 5.68302 4.01093C6.20571 4.52306 6.72311 5.04575 7.24052 5.56843C7.74209 6.07 8.24893 6.57157 8.7505 7.07842C9.63221 7.97068 9.63749 9.01077 8.75578 9.89776C8.12222 10.5313 7.49394 11.1702 6.84982 11.7932C6.68087 11.9568 6.66504 12.0941 6.75479 12.3C7.17716 13.3137 7.7896 14.2165 8.47596 15.0613C9.85923 16.7613 11.422 18.2713 13.2857 19.4381C13.687 19.6862 14.1252 19.871 14.5423 20.0981C14.7588 20.2142 14.9013 20.1773 15.0755 19.9977C15.7038 19.3483 16.3479 18.7095 16.9921 18.0707C17.8368 17.2365 18.8927 17.2312 19.7375 18.0707C20.7723 19.0949 21.8018 20.1245 22.8261 21.1593C23.6867 22.0251 23.6814 23.0863 22.8155 23.9575C22.2295 24.5488 21.6118 25.1085 21.0627 25.7262C20.2602 26.6237 19.2465 26.9194 18.0955 26.856C16.4166 26.7663 14.8696 26.2066 13.3755 25.4833C10.0599 23.873 7.22996 21.6397 4.85939 18.8204C3.10654 16.7296 1.65992 14.4594 0.709576 11.8935ZM25.9992 13.7836C25.9992 6.66132 20.2021 0.864258 13.0798 0.864258V3.32458C18.8452 3.32458 23.5388 8.0182 23.5388 13.7836H25.9992ZM18.9244 13.7836H21.3847C21.3847 9.20612 17.6573 5.47868 13.0798 5.47868V7.939C14.6426 7.939 16.1104 8.54616 17.2138 9.64961C18.3173 10.7531 18.9244 12.2208 18.9244 13.7836Z" fill="black"/>
</svg>
