<svg width="26" height="27" viewBox="0 0 26 27" fill="none" xmlns="http://www.w3.org/2000/svg">
<path d="M8.56096 20.169C9.38514 22.8359 10.6781 24.8388 12.1501 25.4078V19.6462C10.9184 19.7025 9.71857 19.8813 8.56096 20.169Z" fill="black"/>
<path d="M13.8555 14.52V17.9465C15.235 18.0043 16.5732 18.2008 17.8679 18.524C18.1408 17.2662 18.3139 15.907 18.3648 14.52H13.8555Z" fill="black"/>
<path d="M13.8555 1.94409V7.70574C15.0872 7.64947 16.2814 7.47067 17.439 7.183C16.6149 4.51606 15.3276 2.51315 13.8555 1.94409Z" fill="black"/>
<path d="M17.868 8.82788C16.5732 9.15105 15.235 9.34763 13.8555 9.40531V12.8148H18.3649C18.3139 11.4279 18.1409 10.0857 17.868 8.82788Z" fill="black"/>
<path d="M8.56096 7.18293C9.71862 7.47056 10.9184 7.64936 12.1501 7.70562V1.94409C10.6781 2.51315 9.38514 4.51606 8.56096 7.18293Z" fill="black"/>
<path d="M7.63512 14.52C7.6861 15.907 7.85911 17.2661 8.13196 18.524C9.42678 18.2008 10.7706 18.0043 12.1501 17.9466V14.52H7.63512Z" fill="black"/>
<path d="M8.13196 8.82788C7.85911 10.0857 7.6861 11.428 7.63512 12.8149H12.1501V9.40531C10.7706 9.34758 9.42678 9.151 8.13196 8.82788Z" fill="black"/>
<path d="M13.8555 19.6462V25.4079C15.3275 24.8388 16.6149 22.8359 17.439 20.169C16.2814 19.8813 15.0872 19.7025 13.8555 19.6462Z" fill="black"/>
<path d="M20.0662 14.52C20.0142 16.091 19.8193 17.6095 19.5041 19.0104C21.0034 19.5243 22.4226 20.2098 23.7393 21.045C25.0321 19.1667 25.844 16.9288 26 14.52H20.0662Z" fill="black"/>
<path d="M6.93564 20.6558C5.66002 21.1021 4.44798 21.6835 3.31723 22.3856C5.20187 24.4788 7.75414 25.9571 10.6348 26.4877C9.07135 25.4154 7.77176 23.3181 6.93564 20.6558Z" fill="black"/>
<path d="M19.0643 20.6558C18.2282 23.3181 16.9285 25.4154 15.3652 26.4877C18.2459 25.9571 20.7981 24.4788 22.6827 22.3856C21.552 21.6836 20.34 21.1022 19.0643 20.6558Z" fill="black"/>
<path d="M23.7393 6.30688C22.4226 7.14203 21.0034 7.82758 19.5041 8.34149C19.8193 9.74239 20.0141 11.2438 20.0662 12.8148H26C25.8441 10.406 25.0321 8.18513 23.7393 6.30688Z" fill="black"/>
<path d="M2.26073 6.30688C0.967891 8.18518 0.155949 10.406 0 12.8148H5.93379C5.98584 11.2438 6.18074 9.74239 6.49589 8.34149C4.99662 7.82758 3.57739 7.14203 2.26073 6.30688Z" fill="black"/>
<path d="M5.93379 14.5203H0C0.155949 16.9291 0.967891 19.167 2.26073 21.0452C3.57739 20.21 4.99662 19.5245 6.49589 19.0106C6.18069 17.6097 5.98589 16.0913 5.93379 14.5203Z" fill="black"/>
<path d="M3.31723 4.96661C4.44798 5.66861 5.65997 6.25001 6.93564 6.69642C7.77176 4.03412 9.0714 1.9368 10.6348 0.864502C7.75414 1.39512 5.20187 2.87336 3.31723 4.96661Z" fill="black"/>
<path d="M15.3652 0.864258C16.9286 1.93655 18.2283 4.03392 19.0644 6.69618C20.3401 6.24986 21.5521 5.66847 22.6828 4.96637C20.7981 2.87316 18.2459 1.39492 15.3652 0.864258Z" fill="black"/>
</svg>
