<svg width="21" height="30" viewBox="0 0 21 30" fill="none" xmlns="http://www.w3.org/2000/svg">
<path d="M10.2946 0.864258C4.61812 0.864258 0 5.48238 0 11.1588C0 18.2034 9.21265 28.5453 9.60488 28.9821C9.9733 29.3924 10.6165 29.3917 10.9843 28.9821C11.3765 28.5453 20.5892 18.2034 20.5892 11.1588C20.5891 5.48238 15.971 0.864258 10.2946 0.864258ZM10.2946 16.3383C7.43862 16.3383 5.11518 14.0148 5.11518 11.1588C5.11518 8.30282 7.43867 5.97938 10.2946 5.97938C13.1505 5.97938 15.4739 8.30287 15.4739 11.1588C15.4739 14.0148 13.1505 16.3383 10.2946 16.3383Z" fill="black"/>
</svg>
