<svg width="42" height="25" viewBox="0 0 42 25" fill="none" xmlns="http://www.w3.org/2000/svg">
<path d="M10.6666 2.69762C9.33328 1.36426 3.66664 1.03098 1.83328 0.864258C1.66664 0.864258 1.49992 0.864258 1.33328 1.0309C1.16664 1.19762 1 1.53098 1 1.69762V16.6976C1 17.1976 1.33336 17.531 1.83336 17.531H6.83336C7.16672 17.531 7.5 17.3644 7.66672 17.031C7.66672 16.531 10.6667 7.69762 11.0001 3.36434C11 3.19762 11 2.86434 10.6666 2.69762Z" stroke="#D04F45"/>
<path d="M28.5001 6.69757C26.8335 6.19757 25.3335 5.53093 24.0001 5.03093C21.0001 3.69757 19.6667 4.36429 17.0001 7.03093C15.8335 8.19758 15.0001 9.8643 15.1667 10.5309C15.1667 10.6976 15.1667 10.6976 15.5001 10.8643C16.3335 11.1977 17.5001 11.3643 18.6667 9.53094C18.8334 9.3643 19.0001 9.19758 19.3334 9.19758C19.8334 9.19758 20 9.03093 20.5 8.86422C20.8334 8.69757 21.1667 8.53086 21.6667 8.36422C21.8333 8.36422 21.8333 8.36422 22 8.36422C22.1667 8.36422 22.5 8.53086 22.6667 8.53086C23.5001 9.36429 25.0001 10.5309 26.5001 11.8643C28.8335 13.6977 31.1667 15.6977 32.3335 17.1977H32.5001C31.3335 13.8643 29.3335 8.19757 28.5001 6.69757Z" stroke="#D04F45"/>
<path d="M40.1666 2.53101C33.6666 2.53101 30 4.19765 29.8333 4.19765C29.6666 4.36429 29.4999 4.53101 29.3333 4.69765C29.3333 4.86429 29.3333 5.19765 29.4999 5.36429C30.4999 7.03093 33.8333 16.1976 34.3333 18.5309C34.4999 18.8643 34.8333 19.1976 35.1666 19.1976H40.1666C40.6666 19.1976 41 18.8642 41 18.3642V3.36421C41 2.86436 40.6666 2.53101 40.1666 2.53101Z" stroke="#D04F45"/>
<path d="M31.1667 18.8645C30.5 17.3645 27.6667 15.1979 25.1667 13.1979C23.8334 12.0311 22.5 11.0311 21.5 10.1978C21.3334 10.3644 21 10.3644 21 10.5311C20.5 10.6978 20.3334 10.8645 19.6667 10.8645C18.3334 12.5311 16.6667 13.1978 14.8334 12.5311C14 12.3645 13.5 11.6978 13.3334 11.0311C13 9.3645 14.5 7.03114 15.6667 5.8645H12.3334C11.6667 9.19786 10.5 13.5311 9.66675 15.8645C10.3334 16.5311 11.0001 17.3645 11.5001 17.6979C14.6667 20.3645 18.3335 23.0312 19.0001 23.5312C19.5001 23.8646 20.5001 24.1979 21.0001 24.1979C21.1668 24.1979 21.3335 24.1979 21.5001 24.1979L18.8334 21.5312C18.5 21.1978 18.5 20.6978 18.8334 20.3645C19.1667 20.0312 19.6667 20.0312 20 20.3645L23.3334 23.6979C23.6668 24.0312 24 23.8645 24.3334 23.8645C24.8334 23.6979 25 23.3645 25.1668 22.8645L21.3334 19.0312C21 18.6978 21 18.1978 21.3334 17.8645C21.6667 17.5312 22.1668 17.5312 22.5 17.8645L26.6667 22.0312C26.8333 22.1978 27.5 22.1978 28 22.0312C28.1667 21.8645 28.5 21.6978 28.6667 21.3645L24 16.6978C23.6667 16.3644 23.6667 15.8644 24 15.5311C24.3334 15.1979 24.8334 15.1978 25.1667 15.5311L30 20.3645C30.3334 20.5312 30.6667 20.3645 31 20.1979C31.1667 20.0312 31.5 19.5312 31.1667 18.8645Z" stroke="#D04F45"/>
</svg>
