<svg width="38" height="42" viewBox="0 0 38 42" fill="none" xmlns="http://www.w3.org/2000/svg">
<path d="M19.089 4.71013C19.5137 4.71013 19.8575 4.36631 19.8575 3.94079V1.6336C19.8575 1.20893 19.5137 0.864258 19.089 0.864258C18.6643 0.864258 18.3196 1.20893 18.3196 1.6336V3.94079C18.3196 4.36631 18.6643 4.71013 19.089 4.71013Z" stroke="#D04F45"/>
<path d="M10.9164 6.33733C11.0593 6.58413 11.3172 6.722 11.5836 6.722C11.7138 6.722 11.8466 6.68881 11.9674 6.61903C12.3359 6.40626 12.4619 5.93649 12.2491 5.56798L11.0951 3.56973C10.8823 3.20123 10.4126 3.07527 10.044 3.28803C9.6764 3.50079 9.55044 3.97057 9.76235 4.33907L10.9164 6.33733Z" stroke="#D04F45"/>
<path d="M6.47306 10.7806L4.4748 9.62748C4.1063 9.41472 3.63652 9.54152 3.42376 9.90917C3.21185 10.2768 3.3378 10.7475 3.70546 10.9602L5.70371 12.1134C5.82456 12.1832 5.95732 12.2164 6.08753 12.2164C6.35391 12.2164 6.61178 12.0785 6.75475 11.8317C6.96666 11.464 6.84071 10.9934 6.47306 10.7806Z" stroke="#D04F45"/>
<path d="M4.84588 18.9532C4.84588 18.5286 4.5012 18.1839 4.07653 18.1839H1.76935C1.34467 18.1839 1 18.5286 1 18.9532C1 19.3779 1.34467 19.7226 1.76935 19.7226H4.07653C4.5012 19.7226 4.84588 19.3779 4.84588 18.9532Z" stroke="#D04F45"/>
<path d="M5.70373 25.7931L3.70463 26.9454C3.33698 27.1581 3.21017 27.6288 3.42208 27.9956C3.5642 28.2432 3.82377 28.3802 4.0893 28.3802C4.21951 28.3802 4.35227 28.3471 4.47312 28.2773L6.47138 27.125C6.83988 26.9122 6.96583 26.4416 6.75392 26.0748C6.54201 25.7054 6.07224 25.5803 5.70373 25.7931Z" stroke="#D04F45"/>
<path d="M34.4733 26.9471L32.4751 25.7931C32.1057 25.5803 31.6368 25.7054 31.424 26.0739C31.2113 26.4424 31.3364 26.9122 31.7049 27.125L33.7031 28.2782C33.8257 28.3488 33.9567 28.3811 34.0869 28.3811C34.3533 28.3811 34.6112 28.2433 34.7542 27.9973C34.9652 27.6305 34.841 27.1582 34.4733 26.9471Z" stroke="#D04F45"/>
<path d="M36.4086 18.1847L34.1031 18.1839C33.6776 18.1839 33.3338 18.5286 33.3338 18.9524C33.3338 19.3779 33.6776 19.7217 34.1014 19.7217L36.4086 19.7226C36.8324 19.7226 37.1771 19.3779 37.1771 18.9541C37.1771 18.5294 36.8341 18.1847 36.4086 18.1847Z" stroke="#D04F45"/>
<path d="M32.0896 12.2155C32.2206 12.2155 32.3534 12.1823 32.4734 12.1125L34.4725 10.9602C34.841 10.7483 34.9669 10.2777 34.755 9.91003C34.5423 9.54153 34.0708 9.41557 33.704 9.62833L31.7057 10.7807C31.3364 10.9934 31.2113 11.464 31.4232 11.8308C31.5662 12.0776 31.8249 12.2155 32.0896 12.2155Z" stroke="#D04F45"/>
<path d="M26.2105 6.61734C26.3314 6.68798 26.4633 6.72117 26.5943 6.72117C26.8599 6.72117 27.1177 6.5833 27.2607 6.3365L28.413 4.33909C28.6258 3.97144 28.5007 3.50081 28.1322 3.2889C27.7637 3.07529 27.2939 3.20124 27.0811 3.5706L25.9288 5.568C25.7169 5.9348 25.8437 6.40543 26.2105 6.61734Z" stroke="#D04F45"/>
<path d="M19.2549 6.86426V6.36426L19.2548 6.36426L19.2549 6.86426ZM31.4232 18.6283H31.9232V18.6282L31.4232 18.6283ZM28.465 27.1762L28.8779 27.4581L28.878 27.458L28.465 27.1762ZM28.4632 27.1787L28.8761 27.4607L28.8762 27.4606L28.4632 27.1787ZM24.9723 33.7216L24.6742 33.3201L24.4823 33.4626L24.4727 33.7014L24.9723 33.7216ZM24.8029 36.833L24.3038 36.8029L24.3033 36.8106L24.3031 36.8183L24.8029 36.833ZM22.2864 39.4687L22.1285 38.9943L21.9671 39.048L21.8719 39.1889L22.2864 39.4687ZM21.2923 40.4465L21.0144 40.0309L21.0105 40.0335L21.2923 40.4465ZM17.2175 40.4465L17.4971 40.032L17.4953 40.0308L17.2175 40.4465ZM16.2235 39.4687L16.6371 39.1876L16.5419 39.0476L16.3812 38.9942L16.2235 39.4687ZM13.7078 36.8372H13.2078V36.8467L13.2082 36.8562L13.7078 36.8372ZM13.7078 36.8347H14.2078V36.8196L14.2069 36.8045L13.7078 36.8347ZM13.5376 33.7207L14.0372 33.7005L14.0275 33.4616L13.8355 33.3191L13.5376 33.7207ZM10.0543 27.1872L10.4675 26.9057L10.4673 26.9054L10.0543 27.1872ZM10.0528 27.185L9.63965 27.4667L9.63978 27.4669L10.0528 27.185ZM18.7573 26.1996L18.2617 26.2654L18.2619 26.2671L18.7573 26.1996ZM20.3052 26.1996L20.8005 26.2677L20.8008 26.2653L20.3052 26.1996ZM20.8502 22.0846L21.3459 22.1503L21.3465 22.1455L20.8502 22.0846ZM18.2109 22.0846L17.7148 22.1466L17.7153 22.1504L18.2109 22.0846ZM20.9728 29.4351L20.4728 29.4347V29.4351H20.9728ZM23.0148 31.3361V31.8361H23.1707L23.2989 31.7476L23.0148 31.3361ZM15.4959 31.3361L15.2123 31.7479L15.3404 31.8361H15.4959V31.3361ZM12.5861 25.4392L12.9992 25.1575L12.9991 25.1572L12.5861 25.4392ZM12.5857 25.4385L12.1726 25.7202L12.1727 25.7204L12.5857 25.4385ZM19.2548 6.36426C12.286 6.36603 6.58838 11.8523 6.58838 18.6291H7.58838C7.58838 12.436 12.8063 7.36589 19.2551 7.36426L19.2548 6.36426ZM31.9232 18.6282C31.9223 11.8497 26.2238 6.36426 19.2549 6.36426V7.36426C25.7036 7.36426 30.9224 12.4335 30.9232 18.6283L31.9232 18.6282ZM28.878 27.458C30.1373 25.6124 31.9232 22.9997 31.9232 18.6283H30.9232C30.9232 22.6817 29.2893 25.0809 28.052 26.8944L28.878 27.458ZM28.8762 27.4606L28.8779 27.4581L28.052 26.8943L28.0503 26.8968L28.8762 27.4606ZM27.7445 29.6791C27.7445 29.4514 27.8163 29.1947 28.0043 28.834C28.1951 28.468 28.4819 28.0379 28.8761 27.4607L28.0504 26.8967C27.6633 27.4634 27.3408 27.9435 27.1175 28.3717C26.8915 28.8053 26.7445 29.2268 26.7445 29.6791H27.7445ZM25.2703 34.123C26.8211 32.9717 27.7445 31.397 27.7445 29.6791H26.7445C26.7445 31.013 26.0305 32.3132 24.6742 33.3201L25.2703 34.123ZM24.8029 36.833C25.302 36.863 25.302 36.863 25.302 36.863C25.302 36.863 25.302 36.8629 25.302 36.8629C25.302 36.8628 25.302 36.8627 25.302 36.8626C25.302 36.8623 25.3021 36.8619 25.3021 36.8614C25.3022 36.8603 25.3023 36.8587 25.3024 36.8566C25.3026 36.8524 25.303 36.8461 25.3035 36.8379C25.3045 36.8215 25.3059 36.7973 25.3078 36.7662C25.3115 36.704 25.3168 36.6142 25.3233 36.5036C25.3364 36.2824 25.3541 35.978 25.373 35.6452C25.4108 34.9812 25.4534 34.1993 25.4718 33.7418L24.4727 33.7014C24.4546 34.1494 24.4125 34.9232 24.3747 35.5885C24.3558 35.9204 24.3381 36.224 24.3251 36.4448C24.3186 36.5551 24.3133 36.6447 24.3096 36.7067C24.3077 36.7377 24.3063 36.7618 24.3053 36.7781C24.3048 36.7862 24.3044 36.7925 24.3042 36.7967C24.3041 36.7987 24.304 36.8003 24.3039 36.8014C24.3039 36.8019 24.3038 36.8023 24.3038 36.8026C24.3038 36.8027 24.3038 36.8028 24.3038 36.8029C24.3038 36.8029 24.3038 36.8029 24.3038 36.8029C24.3038 36.8029 24.3038 36.8029 24.8029 36.833ZM22.4442 39.9431C23.6154 39.5533 24.3351 38.9917 24.7617 38.3993C25.1867 37.8088 25.2915 37.2284 25.3027 36.8476L24.3031 36.8183C24.2964 37.047 24.2335 37.4213 23.9501 37.815C23.6682 38.2066 23.1386 38.6581 22.1285 38.9943L22.4442 39.9431ZM21.5703 40.8621C22.0271 40.5567 22.4098 40.1795 22.7008 39.7484L21.8719 39.1889C21.6574 39.5068 21.3695 39.7934 21.0144 40.0309L21.5703 40.8621ZM20.4328 41.2103C20.8378 41.2103 21.2351 41.0909 21.5741 40.8595L21.0105 40.0335C20.8407 40.1494 20.6405 40.2103 20.4328 40.2103V41.2103ZM18.0771 41.2103H20.4328V40.2103H18.0771V41.2103ZM16.9379 40.861C17.2731 41.0871 17.6699 41.2103 18.0771 41.2103V40.2103C17.8715 40.2103 17.6691 40.148 17.4971 40.032L16.9379 40.861ZM15.81 39.7497C16.1017 40.179 16.4828 40.557 16.9398 40.8623L17.4953 40.0308C17.1421 39.7948 16.8543 39.5073 16.6371 39.1876L15.81 39.7497ZM13.2082 36.8562C13.2229 37.2447 13.3327 37.8253 13.7595 38.4127C14.1875 39.0019 14.9051 39.5575 16.0658 39.9432L16.3812 38.9942C15.3803 38.6616 14.8519 38.2151 14.5685 37.8249C14.2838 37.433 14.2165 37.057 14.2075 36.8183L13.2082 36.8562ZM13.2078 36.8347V36.8372H14.2078V36.8347H13.2078ZM13.038 33.7409C13.0565 34.1981 13.0993 34.9807 13.1372 35.6454C13.1563 35.9786 13.1741 36.2834 13.1872 36.5049C13.1938 36.6157 13.1992 36.7056 13.2029 36.7679C13.2048 36.799 13.2062 36.8233 13.2072 36.8397C13.2077 36.8479 13.2081 36.8542 13.2083 36.8584C13.2085 36.8606 13.2086 36.8622 13.2086 36.8632C13.2087 36.8638 13.2087 36.8642 13.2087 36.8644C13.2087 36.8646 13.2087 36.8647 13.2087 36.8648C13.2087 36.8648 13.2087 36.8648 13.2087 36.8648C13.2087 36.8649 13.2087 36.8649 13.7078 36.8347C14.2069 36.8045 14.2069 36.8045 14.2069 36.8045C14.2069 36.8045 14.2069 36.8044 14.2069 36.8044C14.2069 36.8043 14.2069 36.8042 14.2069 36.8041C14.2069 36.8039 14.2068 36.8035 14.2068 36.8029C14.2067 36.8019 14.2066 36.8003 14.2065 36.7982C14.2063 36.794 14.2059 36.7878 14.2054 36.7796C14.2044 36.7632 14.203 36.7391 14.2011 36.7081C14.1974 36.646 14.192 36.5563 14.1855 36.4458C14.1724 36.2248 14.1546 35.9207 14.1356 35.5885C14.0976 34.9224 14.0553 34.148 14.0372 33.7005L13.038 33.7409ZM10.7662 29.6782C10.7662 31.3959 11.6885 32.9716 13.2397 34.1223L13.8355 33.3191C12.4796 32.3133 11.7662 31.0124 11.7662 29.6782H10.7662ZM9.64108 27.4688C10.0316 28.0419 10.3168 28.4697 10.5069 28.8345C10.6943 29.1941 10.7662 29.4506 10.7662 29.6782H11.7662C11.7662 29.2258 11.6189 28.8045 11.3937 28.3724C11.1713 27.9456 10.8505 27.4678 10.4675 26.9057L9.64108 27.4688ZM9.63978 27.4669L9.64128 27.4691L10.4673 26.9054L10.4658 26.9032L9.63978 27.4669ZM6.58838 18.6291C6.58838 22.9958 8.37118 25.606 9.63965 27.4667L10.4659 26.9034C9.21897 25.0743 7.58838 22.6777 7.58838 18.6291H6.58838ZM19.5309 26.3513C19.3373 26.3513 19.2999 26.3177 19.3055 26.3221C19.3233 26.3359 19.2787 26.3225 19.2527 26.1321L18.2619 26.2671C18.3055 26.5874 18.4191 26.8998 18.6921 27.1118C18.9529 27.3144 19.2675 27.3513 19.5309 27.3513V26.3513ZM19.8098 26.1315C19.7837 26.3216 19.7389 26.3354 19.7564 26.3219C19.7617 26.3178 19.724 26.3513 19.5309 26.3513V27.3513C19.7942 27.3513 20.1085 27.3143 20.3693 27.112C20.6422 26.9003 20.7564 26.5882 20.8005 26.2677L19.8098 26.1315ZM20.3546 22.0189L19.8095 26.134L20.8008 26.2653L21.3459 22.1503L20.3546 22.0189ZM20.4192 21.2587C20.4192 21.4861 20.3892 21.7363 20.354 22.0237L21.3465 22.1455C21.3802 21.8713 21.4192 21.5584 21.4192 21.2587H20.4192ZM20.4192 19.2187V21.2587H21.4192V19.2187H20.4192ZM19.5303 18.3643C19.8878 18.3643 20.0938 18.4568 20.2091 18.5669C20.3206 18.6732 20.4192 18.8644 20.4192 19.2187H21.4192C21.4192 18.6762 21.2628 18.1902 20.8995 17.8435C20.5401 17.5005 20.0517 17.3643 19.5303 17.3643V18.3643ZM18.6407 19.2187C18.6407 18.864 18.7394 18.673 18.8507 18.5668C18.9661 18.4568 19.1722 18.3643 19.5303 18.3643V17.3643C19.0088 17.3643 18.5202 17.5002 18.1606 17.8431C17.7971 18.1898 17.6407 18.676 17.6407 19.2187H18.6407ZM18.6407 21.2587V19.2187H17.6407V21.2587H18.6407ZM18.7071 22.0226C18.6711 21.735 18.6407 21.4855 18.6407 21.2587H17.6407C17.6407 21.5591 17.6805 21.8725 17.7148 22.1466L18.7071 22.0226ZM19.253 26.1338L18.7066 22.0188L17.7153 22.1504L18.2617 26.2654L19.253 26.1338ZM18.5884 29.4351C18.5884 28.9196 19.0151 28.4926 19.5309 28.4926V27.4926C18.4625 27.4926 17.5884 28.3676 17.5884 29.4351H18.5884ZM19.5309 30.377C19.0153 30.377 18.5884 29.9501 18.5884 29.4351H17.5884C17.5884 30.503 18.4636 31.377 19.5309 31.377V30.377ZM20.4728 29.4351C20.4728 29.9504 20.0462 30.377 19.5309 30.377V31.377C20.5985 31.377 21.4728 30.5027 21.4728 29.4351H20.4728ZM19.5309 28.4926C20.0463 28.4926 20.4732 28.9197 20.4728 29.4347L21.4728 29.4355C21.4737 28.3675 20.5984 27.4926 19.5309 27.4926V28.4926ZM25.5005 25.1727C24.6145 26.4715 23.6672 27.839 23.6672 29.6782H24.6672C24.6672 28.1933 25.4151 27.0724 26.3266 25.7363L25.5005 25.1727ZM23.6672 29.6782C23.6672 29.8881 23.5721 30.1096 23.3864 30.3396C23.2016 30.5685 22.9562 30.769 22.7308 30.9246L23.2989 31.7476C23.5654 31.5636 23.8961 31.3002 24.1646 30.9677C24.4321 30.6362 24.6672 30.1986 24.6672 29.6782H23.6672ZM23.0148 30.8361H15.4959V31.8361H23.0148V30.8361ZM15.7794 30.9243C15.5545 30.7694 15.3091 30.569 15.1244 30.34C14.9387 30.1099 14.8435 29.8881 14.8435 29.6782H13.8435C13.8435 30.1985 14.0786 30.6364 14.3461 30.9679C14.6146 31.3007 14.9454 31.5641 15.2123 31.7479L15.7794 30.9243ZM14.8435 29.6782C14.8435 27.8388 13.8949 26.4709 12.9992 25.1575L12.1731 25.7209C13.0952 27.073 13.8435 28.1935 13.8435 29.6782H14.8435ZM12.9991 25.1572L12.9986 25.1566L12.1727 25.7204L12.1732 25.7211L12.9991 25.1572ZM12.9988 25.1568C11.8735 23.5064 10.6649 21.7276 10.6649 18.63H9.66491C9.66491 22.0488 11.0292 24.0433 12.1726 25.7202L12.9988 25.1568ZM10.6649 18.63C10.6649 14.1385 14.4976 10.4433 19.2559 10.4416L19.2556 9.44164C13.9886 9.44343 9.66491 13.5438 9.66491 18.63H10.6649Z" fill="#D04F45"/>
</svg>
