<svg width="42" height="42" viewBox="0 0 42 42" fill="none" xmlns="http://www.w3.org/2000/svg">
<path fill-rule="evenodd" clip-rule="evenodd" d="M25.2799 30.0078C22.8304 31.5675 19.9224 32.4711 16.8034 32.4711C8.07542 32.4711 1 25.3957 1 16.6677C1 7.93971 8.07542 0.864288 16.8034 0.864288C19.3074 0.859344 21.7761 1.4555 24.0018 2.60266C29.2816 5.30553 32.6041 10.7363 32.6068 16.6677C32.6068 19.7867 31.7032 22.6947 30.1436 25.1442L39.4676 33.1449C40.719 34.2175 41.2637 35.9008 40.878 37.5032C40.4923 39.1055 39.2412 40.3566 37.6389 40.7423C36.0365 41.128 34.3532 40.5832 33.2806 39.3319L25.2799 30.0078ZM29.0573 15.3102C29.2817 15.3874 29.4398 15.5891 29.4611 15.8254C29.4816 16.1035 29.4903 16.3832 29.4903 16.6669C29.4903 16.9506 29.4809 17.2311 29.4603 17.5092C29.4388 17.7454 29.2807 17.9471 29.0565 18.0244L27.5062 18.5775C27.3991 19.1797 27.2405 19.7716 27.0321 20.3467L28.102 21.5991C28.2581 21.778 28.294 22.032 28.1937 22.2471C28.072 22.4984 27.9408 22.7496 27.7986 22.9922C27.6564 23.2348 27.5086 23.4726 27.3506 23.7034C27.2142 23.8974 26.9765 23.9931 26.7437 23.9475L25.127 23.6481C24.7314 24.1157 24.2974 24.5494 23.8296 24.9447L24.1298 26.5622C24.1746 26.7951 24.0788 27.0325 23.8849 27.1691C23.6557 27.3245 23.4187 27.4735 23.1737 27.6163C22.9288 27.759 22.6806 27.8907 22.4294 28.0114C22.2142 28.1109 21.9606 28.075 21.7814 27.9197L20.5243 26.8514C19.9488 27.0594 19.3567 27.218 18.7543 27.3255L18.2059 28.875C18.1287 29.0995 17.9265 29.2575 17.6899 29.278C17.4126 29.2994 17.1313 29.3088 16.8476 29.3088C16.5639 29.3088 16.2834 29.2994 16.0053 29.278C15.7691 29.2572 15.5672 29.0993 15.4901 28.875L14.9417 27.3255C14.3393 27.218 13.7472 27.0594 13.1717 26.8514L11.9193 27.9213C11.7402 28.0766 11.4866 28.1125 11.2714 28.013C11.0201 27.8921 10.7688 27.7593 10.5263 27.6179C10.2837 27.4764 10.045 27.3287 9.8151 27.1706C9.62089 27.0344 9.52494 26.7967 9.57015 26.5638L9.86962 24.9463C9.40182 24.5512 8.96806 24.1174 8.57295 23.6496L6.95627 23.9491C6.7233 23.9946 6.48534 23.899 6.34862 23.7049C6.19375 23.4763 6.04467 23.2393 5.90139 22.9938C5.7581 22.7483 5.62641 22.4999 5.5063 22.2487C5.40616 22.0337 5.44175 21.7799 5.59717 21.6007L6.66785 20.3483C6.45986 19.7731 6.30125 19.1812 6.19375 18.5791L4.64423 18.026C4.42001 17.9486 4.26199 17.747 4.24045 17.5108C4.21912 17.2327 4.20963 16.9522 4.20963 16.6685C4.20963 16.3848 4.21912 16.1043 4.24045 15.8262C4.26179 15.5899 4.41989 15.3882 4.64423 15.311L6.19454 14.7579C6.30166 14.1559 6.46028 13.5643 6.66864 12.9895L5.59796 11.7362C5.44254 11.5571 5.40695 11.3033 5.50709 11.0883C5.63036 10.836 5.76206 10.5876 5.90218 10.3432C6.0423 10.0987 6.19138 9.86169 6.34941 9.63202C6.48613 9.43797 6.72409 9.34235 6.95705 9.38786L8.57453 9.68733C8.96965 9.21978 9.40341 8.78629 9.8712 8.39145L9.57094 6.77318C9.52573 6.54029 9.62168 6.30258 9.81589 6.16633C10.0435 6.00909 10.2821 5.86054 10.527 5.7191C10.7725 5.57634 11.0209 5.44464 11.2722 5.32401C11.4874 5.2245 11.7409 5.26037 11.9201 5.41567L13.1694 6.48398C13.7442 6.27562 14.3358 6.117 14.9378 6.00988L15.4909 4.45878C15.568 4.2345 15.7698 4.07661 16.0061 4.05579C16.2842 4.03445 16.5647 4.02497 16.8484 4.02497C17.1321 4.02497 17.4134 4.03445 17.6955 4.06132C17.932 4.08184 18.1342 4.23979 18.2114 4.46431L18.7598 6.01541C19.3618 6.12253 19.9534 6.28115 20.5282 6.48951L21.7822 5.41883C21.9614 5.26353 22.215 5.22766 22.4302 5.32717C22.682 5.45044 22.9301 5.58213 23.1745 5.72226C23.4189 5.86238 23.656 6.01146 23.8857 6.16949C24.0795 6.30601 24.1754 6.54349 24.1306 6.77634L23.8303 8.39461C24.2981 8.78945 24.7319 9.22294 25.127 9.69049L26.7445 9.39102C26.9772 9.34543 27.215 9.4411 27.3513 9.63518C27.5086 9.86196 27.6571 10.1006 27.7994 10.3463C27.9416 10.5918 28.0733 10.8402 28.1945 11.0915C28.2948 11.3066 28.2589 11.5606 28.1028 11.7394L27.0329 12.9887C27.2409 13.5636 27.3995 14.1552 27.507 14.7571L29.0573 15.3102ZM23.9149 16.6677C23.9149 20.5953 20.731 23.7792 16.8034 23.7792C12.8758 23.7792 9.69183 20.5953 9.69183 16.6677C9.69183 12.7401 12.8758 9.55615 16.8034 9.55615C20.731 9.55615 23.9149 12.7401 23.9149 16.6677Z" stroke="#D04F45"/>
</svg>
