<svg width="42" height="32" viewBox="0 0 42 32" fill="none" xmlns="http://www.w3.org/2000/svg">
<path d="M19.8279 0.864258C15.3153 1.12335 11.0853 2.87537 7.71094 5.88318L12.7149 10.8868C13.816 10.4959 15.0007 10.2823 16.2342 10.2823C17.4955 10.2823 18.7058 10.5054 19.8279 10.9134V0.864258Z" stroke="#D04F45"/>
<path d="M24.3774 14.1336L33.843 5.49744C30.5453 2.72552 26.488 1.11206 22.1719 0.864258V12.1173C22.9989 12.6825 23.7417 13.3621 24.3774 14.1336V14.1336Z" stroke="#D04F45"/>
<path d="M1 20.8294V22.0013H5.6875V20.8294C5.6875 17.1279 7.60431 13.8662 10.4971 11.9836L6.05402 7.54053C2.78711 11.2054 1 15.8798 1 20.8294Z" stroke="#D04F45"/>
<path d="M34.7854 22.0012H41V20.8293C41 19.1252 40.7873 17.4541 40.3765 15.8452L34.7854 22.0012Z" stroke="#D04F45"/>
<path d="M20.9998 22.0408C19.7477 22.0408 18.5703 22.5284 17.685 23.4138C15.8576 25.2415 15.8576 28.2151 17.685 30.0428C18.5703 30.9281 19.7477 31.4158 20.9998 31.4158C22.2516 31.4158 23.429 30.9281 24.3143 30.0428C26.142 28.2151 26.142 25.2415 24.3143 23.4138C23.429 22.5284 22.2516 22.0408 20.9998 22.0408Z" stroke="#D04F45"/>
<path d="M36.0148 6.68896L21.7173 19.7334C23.324 19.8951 24.8142 20.5992 25.9714 21.7564C27.1567 22.9417 27.8284 24.4487 27.989 25.999L41.0001 11.6728V6.68896H36.0148Z" stroke="#D04F45"/>
</svg>
