<svg width="42" height="42" viewBox="0 0 42 42" fill="none" xmlns="http://www.w3.org/2000/svg">
<path d="M11.625 0.864258C10.9773 0.864258 10.4531 1.3884 10.4531 2.03613V4.37988C10.4531 5.02762 10.9773 5.55176 11.625 5.55176H21C21.6477 5.55176 22.1719 5.02762 22.1719 4.37988V2.03613C22.1719 1.3884 21.6477 0.864258 21 0.864258H11.625Z" stroke="#D04F45"/>
<path d="M9.28125 33.7549C9.92846 33.7549 10.4531 33.2302 10.4531 32.583C10.4531 31.9358 9.92846 31.4111 9.28125 31.4111C8.63404 31.4111 8.10938 31.9358 8.10938 32.583C8.10938 33.2302 8.63404 33.7549 9.28125 33.7549Z" stroke="#D04F45"/>
<path d="M30.4531 3.20801H24.5156V4.37988C24.5156 6.31848 22.9386 7.89551 21 7.89551H11.625C9.68641 7.89551 8.10938 6.31848 8.10938 4.37988V3.20801H2.17188C1.52414 3.20801 1 3.73215 1 4.37988V39.6924C1 40.3401 1.52414 40.8643 2.17188 40.8643H30.4531C31.1009 40.8643 31.625 40.3401 31.625 39.6924V4.37988C31.625 3.73215 31.1009 3.20801 30.4531 3.20801ZM8.45273 14.6615C7.995 14.2038 7.995 13.4621 8.45273 13.0044C8.91047 12.5467 9.65211 12.5467 10.1098 13.0044L11.625 14.5196L13.1402 13.0044C13.598 12.5467 14.3396 12.5467 14.7973 13.0044C15.2551 13.4621 15.2551 14.2038 14.7973 14.6615L13.2821 16.1768L14.7973 17.692C15.2551 18.1497 15.2551 18.8914 14.7973 19.3491C14.3396 19.8068 13.598 19.8068 13.1402 19.3491L11.625 17.8339L10.1098 19.3491C9.65203 19.8068 8.91039 19.8068 8.45266 19.3491C7.99492 18.8914 7.99492 18.1497 8.45266 17.692L9.96789 16.1768L8.45273 14.6615ZM24.1723 31.7545C24.63 32.2122 24.63 32.9539 24.1723 33.4116C23.7145 33.8693 22.9729 33.8693 22.5152 33.4116L21 31.8964L19.4848 33.4116C19.027 33.8693 18.2854 33.8693 17.8277 33.4116C17.3699 32.9539 17.3699 32.2122 17.8277 31.7545L19.3429 30.2393L17.8277 28.724C17.3699 28.2663 17.3699 27.5246 17.8277 27.0669C18.2854 26.6092 19.027 26.6092 19.4848 27.0669L21 28.5821L22.5152 27.0669C22.973 26.6092 23.7146 26.6092 24.1723 27.0669C24.6301 27.5246 24.6301 28.2663 24.1723 28.724L22.6571 30.2393L24.1723 31.7545ZM26.516 14.6615C26.0583 15.1193 25.3166 15.1193 24.8589 14.6615L24.5156 14.3182V20.8643C24.5156 22.8029 22.9386 24.3799 21 24.3799H11.625C10.9784 24.3799 10.4531 24.9052 10.4531 25.5518V29.2832C11.8142 29.7686 12.7969 31.0572 12.7969 32.583C12.7969 34.5216 11.2198 36.0986 9.28125 36.0986C7.34266 36.0986 5.76562 34.5216 5.76562 32.583C5.76562 31.0572 6.74828 29.7686 8.10938 29.2832V25.5518C8.10938 23.6132 9.68641 22.0361 11.625 22.0361H21C21.6466 22.0361 22.1719 21.5108 22.1719 20.8643V14.3182L21.8285 14.6616C21.3708 15.1193 20.6291 15.1193 20.1714 14.6616C19.7137 14.2039 19.7137 13.4622 20.1714 13.0045L22.5152 10.6607C22.9729 10.203 23.7145 10.203 24.1723 10.6607L26.516 13.0045C26.9738 13.4622 26.9738 14.2038 26.516 14.6615V14.6615Z" stroke="#D04F45"/>
<path d="M33.9688 37.3486C33.9688 37.9964 34.4929 38.5205 35.1406 38.5205H39.8281C40.4759 38.5205 41 37.9964 41 37.3486V15.0049H33.9688V37.3486Z" stroke="#D04F45"/>
<path d="M36.3673 6.11286L34.2832 12.6611H40.6853L38.6012 6.11286C38.2923 5.14239 36.6763 5.14239 36.3673 6.11286V6.11286Z" stroke="#D04F45"/>
</svg>
