<svg width="42" height="42" viewBox="0 0 42 42" fill="none" xmlns="http://www.w3.org/2000/svg">
<path d="M6.9375 19.6143C7.88293 19.6143 8.73865 19.2349 9.37097 18.6258L12.8399 20.3601C12.8225 20.5014 12.7969 20.6403 12.7969 20.7861C12.7969 22.7246 14.374 24.3018 16.3125 24.3018C18.251 24.3018 19.8281 22.7246 19.8281 20.7861C19.8281 20.2451 19.6951 19.7385 19.4756 19.2801L24.1815 14.5743C24.6398 14.7937 25.1464 14.9268 25.6875 14.9268C27.626 14.9268 29.2031 13.3496 29.2031 11.4111C29.2031 11.0461 29.1314 10.701 29.0276 10.3699L33.1164 7.30408C33.6743 7.6767 34.3429 7.89551 35.0625 7.89551C37.001 7.89551 38.5781 6.31836 38.5781 4.37988C38.5781 2.44141 37.001 0.864258 35.0625 0.864258C33.124 0.864258 31.5469 2.44141 31.5469 4.37988C31.5469 4.74487 31.6186 5.09003 31.7224 5.42114L27.6336 8.48694C27.0757 8.11432 26.4071 7.89551 25.6875 7.89551C23.749 7.89551 22.1719 9.47266 22.1719 11.4111C22.1719 11.9522 22.3049 12.4588 22.5244 12.9172L17.8185 17.623C17.3602 17.4036 16.8536 17.2705 16.3125 17.2705C15.3671 17.2705 14.5114 17.6498 13.879 18.259L10.4101 16.5247C10.4275 16.3834 10.4531 16.2445 10.4531 16.0986C10.4531 14.1602 8.87598 12.583 6.9375 12.583C4.99902 12.583 3.42188 14.1602 3.42188 16.0986C3.42188 18.0371 4.99902 19.6143 6.9375 19.6143V19.6143Z" stroke="#D04F45"/>
<path d="M39.8281 38.5205H38.5781V13.7549C38.5781 13.1073 38.0538 12.583 37.4062 12.583H32.7188C32.0712 12.583 31.5469 13.1073 31.5469 13.7549V38.5205H29.2031V20.7861C29.2031 20.1385 28.6788 19.6143 28.0312 19.6143H23.3438C22.6962 19.6143 22.1719 20.1385 22.1719 20.7861V38.5205H19.8281V30.1611C19.8281 29.5135 19.3038 28.9893 18.6562 28.9893H13.9688C13.3212 28.9893 12.7969 29.5135 12.7969 30.1611V38.5205H10.4531V25.4736C10.4531 24.826 9.92883 24.3018 9.28125 24.3018H4.59375C3.94617 24.3018 3.42188 24.826 3.42188 25.4736V38.5205H2.17188C1.52429 38.5205 1 39.0448 1 39.6924C1 40.34 1.52429 40.8643 2.17188 40.8643H39.8281C40.4757 40.8643 41 40.34 41 39.6924C41 39.0448 40.4757 38.5205 39.8281 38.5205Z" stroke="#D04F45"/>
</svg>
