<svg width="31" height="42" viewBox="0 0 31 42" fill="none" xmlns="http://www.w3.org/2000/svg">
<path d="M4.43729 11.9121C4.43729 9.44754 6.44237 7.44254 8.90683 7.44254C11.3713 7.44254 13.3764 9.44754 13.3764 11.9121V15.5139C14.6181 15.1343 15.5239 13.9779 15.5239 12.6136V3.8966C15.5239 2.22457 14.1635 0.864258 12.4915 0.864258H5.32214C3.65011 0.864258 2.28979 2.22457 2.28979 3.8966V12.6136C2.28979 13.9779 3.19558 15.1343 4.43729 15.5139V11.9121Z" stroke="#D04F45"/>
<path d="M27.3514 0.864258H20.182C18.51 0.864258 17.1497 2.22457 17.1497 3.8966V12.6136C17.1497 14.2856 18.51 15.6459 20.182 15.6459H27.3514C29.0235 15.6459 30.3838 14.2856 30.3838 12.6136V3.8966C30.3838 2.22457 29.0235 0.864258 27.3514 0.864258Z" stroke="#D04F45"/>
<path d="M21.7976 19.7036C20.6111 19.7036 19.6492 20.6655 19.6492 21.8521V20.7576C19.6492 19.571 18.6873 18.6091 17.5007 18.6091C16.3141 18.6091 15.3522 19.5709 15.3522 20.7576V19.8372C15.3522 18.7087 14.4822 17.7842 13.3764 17.6962C13.3193 17.6917 13.2619 17.6887 13.2038 17.6887C12.3376 17.6887 11.5916 18.2016 11.2517 18.94C11.126 19.2131 11.0553 19.5168 11.0553 19.8372V11.9119C11.0553 10.7254 10.0934 9.76343 8.90684 9.76343C7.72027 9.76343 6.75832 10.7254 6.75832 11.9119V30.3565L6.66535 30.3448L5.3416 24.6794C5.0716 23.5239 3.91605 22.8061 2.76066 23.0761C1.54714 23.0761 0.780185 24.0429 1.05628 25.2246L2.59097 31.7928C3.39355 36.9319 7.54793 40.8641 7.54793 40.8641H20.601C22.782 37.5468 23.9444 33.6637 23.9451 29.6936L23.9462 21.852C23.9462 20.6655 22.9842 19.7036 21.7976 19.7036Z" stroke="#D04F45"/>
</svg>
