<svg width="36" height="42" viewBox="0 0 36 42" fill="none" xmlns="http://www.w3.org/2000/svg">
<path d="M23.8333 40.8643H12.1667C11.5224 40.8643 11 40.2673 11 39.5309V36.8643H25V39.5309C25 40.2673 24.4776 40.8643 23.8333 40.8643Z" stroke="#D04F45"/>
<path fill-rule="evenodd" clip-rule="evenodd" d="M18 36.8643H10.5C9.11914 36.8643 8 35.7899 8 34.4643V15.8464C8 10.8636 10.062 6.08473 13.7324 2.56113C14.8643 1.47457 16.3994 0.864258 18 0.864258C19.6006 0.864258 21.1357 1.47457 22.2676 2.56113C25.938 6.08473 28 10.8636 28 15.8464V34.4643C28 35.7899 26.8809 36.8643 25.5 36.8643H18Z" stroke="#D04F45"/>
<path d="M18 21.8643C21.3137 21.8643 24 19.178 24 15.8643C24 12.5505 21.3137 9.86426 18 9.86426C14.6863 9.86426 12 12.5505 12 15.8643C12 19.178 14.6863 21.8643 18 21.8643Z" stroke="#D04F45"/>
<path d="M28 34.1976L32.1834 38.381C32.4928 38.6904 32.9124 38.8643 33.35 38.8643C34.2612 38.8643 35 38.1256 35 37.2143V33.314C35 32.3858 34.6312 31.4954 33.9749 30.839L28 24.8643V34.1976Z" stroke="#D04F45"/>
<path d="M8 34.1976L3.81662 38.381C3.50717 38.6904 3.0876 38.8643 2.64996 38.8643C1.73879 38.8643 1 38.1256 1 37.2143V33.314C1 32.3858 1.36881 31.4954 2.02506 30.839L8 24.8643V34.1976Z" stroke="#D04F45"/>
</svg>
