<svg width="33" height="42" viewBox="0 0 33 42" fill="none" xmlns="http://www.w3.org/2000/svg">
<path d="M16.2343 40.8644C16.4608 40.8644 16.6875 40.7992 16.8843 40.6675L23.1448 36.4938L16.2343 32.3481L9.32373 36.4939L15.5842 40.6676C15.7811 40.7992 16.0077 40.8644 16.2343 40.8644V40.8644Z" stroke="#D04F45"/>
<path d="M1 20.8643L8.03125 24.9658L15.0625 20.8643L8.03125 16.7627L1 20.8643Z" stroke="#D04F45"/>
<path d="M24.4375 16.7627L17.4062 20.8643L24.4375 24.9658L31.4688 20.8643L24.4375 16.7627Z" stroke="#D04F45"/>
<path d="M1 29.654C1 30.0655 1.21602 30.447 1.56891 30.6587L6.85938 33.833V26.9958L1 23.5779V29.654Z" stroke="#D04F45"/>
<path d="M9.20312 26.9959V33.8331L15.0625 30.3175V23.5779L9.20312 26.9959Z" stroke="#D04F45"/>
<path d="M23.2656 27.0011L17.4062 23.5779V30.3175L23.2656 33.8331V27.0011Z" stroke="#D04F45"/>
<path d="M25.6094 33.833L30.8998 30.6587C31.2527 30.447 31.4688 30.0655 31.4688 29.654V23.5779L25.6094 27.0011V33.833Z" stroke="#D04F45"/>
<path d="M16.2344 9.06744L23.2656 4.96588L16.8249 1.02393C16.46 0.811035 16.0088 0.811035 15.6439 1.02393L9.20312 4.96588L16.2344 9.06744Z" stroke="#D04F45"/>
<path d="M9.20312 14.7328L15.0625 18.1508V11.0972L9.20312 7.67896V14.7328Z" stroke="#D04F45"/>
<path d="M23.2656 14.7328V7.67896L17.4062 11.0972V18.1508L23.2656 14.7328Z" stroke="#D04F45"/>
</svg>
