<svg width="31" height="32" viewBox="0 0 31 32" fill="none" xmlns="http://www.w3.org/2000/svg">
<g clip-path="url(#clip0)">
<path d="M5.16667 0.135742V6.59408H0V18.2191H5.16667V31.1357H23.25L31 23.3857V0.135742H5.16667ZM1.29167 16.9274V7.88574H20.6667V16.9274H1.29167ZM23.25 29.3093V23.3857H29.1736L23.25 29.3093ZM29.7083 22.0941H21.9583V29.8441H6.45833V18.2191H21.9583V6.59408H6.45833V1.42741H29.7083V22.0941Z" fill="#D04F45"/>
<path d="M7.33444 10.7003C7.28277 10.5014 7.19752 10.3244 7.07869 10.1694C6.95985 10.0144 6.80486 9.8891 6.60981 9.79352C6.41477 9.69794 6.17711 9.65015 5.89294 9.65015H3.93994V15.1836H5.05594V12.9749H5.65269C5.91619 12.9749 6.15644 12.9387 6.37344 12.8729C6.59044 12.807 6.77515 12.7049 6.92756 12.5706C7.07998 12.4376 7.19881 12.2645 7.28406 12.0526C7.36931 11.8408 7.41194 11.5928 7.41194 11.3086C7.41194 11.102 7.38481 10.8979 7.33444 10.7003ZM6.09056 11.9532C5.95494 12.0875 5.77411 12.156 5.55194 12.156H5.05594V10.4729H5.52094C5.79994 10.4729 5.99886 10.5466 6.11769 10.6899C6.23652 10.8346 6.29594 11.0464 6.29594 11.3254C6.29594 11.6096 6.22748 11.8189 6.09056 11.9532Z" fill="#D04F45"/>
<path d="M12.3805 11.2312C12.334 10.8992 12.2462 10.6176 12.1132 10.3825C11.9814 10.1462 11.7967 9.96662 11.5591 9.84003C11.3201 9.71345 11.0088 9.64886 10.62 9.64886H8.79102V15.1824H10.5528C10.9248 15.1824 11.2323 15.1255 11.4751 15.0119C11.7179 14.8982 11.9117 14.7264 12.0563 14.4926C12.201 14.2601 12.303 13.963 12.3625 13.6052C12.4219 13.2462 12.4503 12.8238 12.4503 12.3381C12.4503 11.9312 12.427 11.5618 12.3805 11.2312ZM11.2981 13.3159C11.2762 13.5704 11.2297 13.7744 11.1586 13.9294C11.0889 14.0844 10.9946 14.1955 10.8758 14.2627C10.7569 14.3299 10.5993 14.3634 10.403 14.3634H9.90701V10.4717H10.3785C10.5903 10.4717 10.7595 10.513 10.8861 10.5931C11.014 10.6719 11.1083 10.7907 11.1741 10.9483C11.2387 11.1059 11.2813 11.3035 11.302 11.5412C11.3214 11.7801 11.333 12.0565 11.333 12.3717C11.333 12.7489 11.3214 13.064 11.2981 13.3159Z" fill="#D04F45"/>
<path d="M17.0522 10.5646V9.65015H13.96V15.1836H15.076V12.7811H16.9359V11.8666H15.076V10.5646H17.0522Z" fill="#D04F45"/>
</g>
<defs>
<clipPath id="clip0">
<rect y="0.135742" width="31" height="31" fill="white"/>
</clipPath>
</defs>
</svg>
