<svg width="448" height="444" viewBox="0 0 448 444" fill="none" xmlns="http://www.w3.org/2000/svg">
<g filter="url(#filter0_d)">
<path d="M102.704 229.201V218.083M102.704 229.201L109.745 238.837M102.704 229.201H115.304M102.704 218.083L115.304 229.201M102.704 218.083L111.784 203.816M102.704 218.083L123.087 216.972M120.863 189.548L139.022 181.395M120.863 189.548L129.757 193.625M120.863 189.548L123.087 216.972M120.863 189.548L111.784 203.816M139.022 181.395L129.757 193.625M139.022 181.395L143.099 198.442M147.175 215.489L134.019 227.163M147.175 215.489L139.022 208.078M147.175 215.489L123.087 216.972M147.175 215.489L143.099 198.442M147.175 215.489L196.093 227.163M147.175 215.489L190.534 198.442M147.175 215.489L179.34 218.083M120.863 238.837H109.745M120.863 238.837L115.304 229.201M120.863 238.837L134.019 227.163M109.745 238.837L115.304 229.201M115.304 229.201L134.019 227.163M115.304 229.201L123.087 216.972M134.019 227.163L123.087 216.972M123.087 216.972L139.022 208.078M123.087 216.972L111.784 203.816M123.087 216.972L129.757 193.625M139.022 208.078L129.757 193.625M201.281 302.949L209.805 292.202M201.281 302.949L214.623 315.549M201.281 302.949L190.534 315.549M201.281 302.949H196.093M209.805 292.202L196.093 302.949M209.805 292.202L210.812 292.666M224.258 298.872L214.623 315.549M224.258 298.872L220.923 320.737M224.258 298.872L210.812 292.666M214.623 315.549L220.923 320.737M214.623 315.549L206.84 329.261M214.623 315.549H190.534M214.623 315.549L201.281 323.331M220.923 320.737L206.84 329.261M206.84 329.261L201.281 323.331M206.84 329.261L186.828 339.637M190.534 315.549L201.281 323.331M190.534 315.549L186.828 339.637M190.534 315.549L183.122 311.102M190.534 315.549L180.158 326.666M190.534 315.549L172.746 320.737M201.281 323.331L186.828 339.637M186.828 339.637L180.158 326.666M186.828 339.637H177.193M177.193 339.637L171.263 331.855M177.193 339.637L180.158 326.666M171.263 331.855L172.746 320.737M171.263 331.855L180.158 326.666M172.746 320.737L183.122 311.102M172.746 320.737L180.158 326.666M183.122 311.102L189.608 307.025M196.093 302.949L189.608 307.025M261.687 258.478L259.464 269.225M261.687 258.478H272.898M261.687 258.478L268.729 251.437M275.77 244.395L284.108 258.478M275.77 244.395L272.898 258.478M275.77 244.395L289.019 246.99M275.77 244.395L268.729 251.437M275.77 244.395L284.849 239.948M275.77 244.395L279.522 239.948M293.929 235.501H313.2L311.347 244.395M293.929 235.501L300.599 249.954M293.929 235.501L289.019 246.99M293.929 235.501L284.849 239.948M311.347 244.395L300.599 249.954M311.347 244.395L306.529 258.478M300.599 249.954L306.529 258.478M300.599 249.954L284.108 258.478M300.599 249.954L289.019 246.99M306.529 258.478L291.705 267.372M306.529 258.478H284.108M291.705 267.372L283.738 271.819M291.705 267.372L284.108 258.478M275.77 276.266L265.764 279.231M275.77 276.266L283.738 271.819M275.77 276.266L284.108 258.478M275.77 276.266L271.323 269.225M265.764 279.231L259.464 269.225M265.764 279.231L271.323 269.225M259.464 269.225H271.323M284.108 258.478H272.898M284.108 258.478L289.019 246.99M284.108 258.478L283.738 271.819M284.108 258.478L271.323 269.225M272.898 258.478L271.323 269.225M143.099 198.442H190.534M143.099 198.442L179.34 218.083M190.534 198.442L196.093 227.163M190.534 198.442L201.652 181.395M190.534 198.442L218.699 218.083M190.534 198.442L179.34 218.083M196.093 227.163L204.246 238.837M196.093 227.163L218.699 218.083M196.093 227.163L179.34 218.083M204.246 238.837L224.258 249.954M204.246 238.837L209.805 258.478M204.246 238.837L218.699 218.083M204.246 238.837L224.258 258.478M224.258 249.954V258.478M224.258 249.954L252.793 246.99M224.258 249.954L240.193 212.525M224.258 249.954L218.699 218.083M224.258 249.954L209.805 258.478M224.258 258.478L210.812 292.666M224.258 258.478H209.805M224.258 258.478L189.608 307.025M210.812 292.666L209.805 258.478M189.608 307.025L209.805 258.478M252.793 246.99L263.54 239.948M252.793 246.99L240.193 212.525M263.54 239.948L268.729 251.437M263.54 239.948L278.364 227.163M263.54 239.948L270.582 206.966M263.54 239.948L240.193 212.525M263.54 239.948H268.868M268.729 251.437L274.195 239.948M268.729 251.437L268.868 239.948M278.364 227.163L284.849 239.948M278.364 227.163L317.091 194.644M278.364 227.163L270.582 206.966M278.364 227.163L274.195 239.948M278.364 227.163L268.868 239.948M278.364 227.163L279.522 239.948M284.849 239.948H279.522M201.652 181.395L218.699 218.083M201.652 181.395L229.076 172.999M201.652 181.395L229.076 201.036M201.652 181.395L208.508 172.287M201.652 181.395L198.872 172.287M271.311 73.9686L286.876 105.839M271.311 73.9686L245.741 107.939M271.311 73.9686L300.217 79.1568M271.311 73.9686L293.269 60.0714M271.311 73.9686L261.676 120.292M359.141 18.38L400.288 15M359.141 18.38L371 39.8742M359.141 18.38L340.99 29.8683M359.141 18.38L400.288 35.3825M400.288 15L411.035 23.8942M400.288 15V35.3825M411.035 23.8942V50.9473M411.035 23.8942L400.288 35.3825M411.035 50.9473L383.426 106.536M411.035 50.9473L371 39.8742M411.035 50.9473L374.718 73.5533M411.035 50.9473L400.288 35.3825M355.817 162.124L330.247 136.554M355.817 162.124L383.426 106.536M355.817 162.124L317.091 194.644M355.817 162.124L360.264 108.759M355.817 162.124L324.688 154.342M286.876 105.839L330.247 136.554M286.876 105.839L322.835 106.536M286.876 105.839L300.217 79.1568M286.876 105.839L281.966 122.516M330.247 136.554L322.835 106.536M330.247 136.554L360.264 108.759M330.247 136.554L280.576 122.516L261.676 120.292M330.247 136.554L324.688 154.342M315.226 46.1743L327.282 94.6769M315.226 46.1743L340.99 29.8683M315.226 46.1743L330.235 64.7038M315.226 46.1743L300.217 79.1568M315.226 46.1743L293.269 60.0714M327.282 94.6769L360.264 108.759M327.282 94.6769L330.235 64.7038M327.282 94.6769L322.835 106.536M327.282 94.6769L300.217 79.1568M360.264 108.759L383.426 106.536M360.264 108.759L322.835 106.536M360.264 108.759L374.718 73.5533M360.264 108.759L330.235 64.7038M383.426 106.536L374.718 73.5533M371 39.8742L400.288 35.3825M371 39.8742L374.718 73.5533M371 39.8742L340.99 29.8683M371 39.8742L330.235 64.7038M245.741 107.939L259.464 162.124M245.741 107.939L224.258 141.38M245.741 107.939L261.676 120.292M259.464 162.124L284.849 189.548M259.464 162.124L261.676 120.292M259.464 162.124L303.055 161.337M259.464 162.124L281.966 122.516M259.464 162.124L224.258 141.38M259.464 162.124L229.076 201.036M259.464 162.124L270.582 206.966M259.464 162.124L229.076 172.999M284.849 189.548L317.091 194.644M284.849 189.548L303.055 161.337M284.849 189.548L270.582 206.966M317.091 194.644L324.688 154.342M317.091 194.644L303.055 161.337M317.091 194.644L270.582 206.966M218.699 218.083L229.076 201.036M218.699 218.083L240.193 212.525M229.076 201.036L270.582 206.966M229.076 201.036V172.999M229.076 201.036L240.193 212.525M224.258 141.38L229.076 172.999M224.258 141.38L215.364 163.179M270.582 206.966L240.193 212.525M281.966 122.516L324.688 154.342M281.966 122.516L303.055 161.337M322.835 106.536L300.217 79.1568M374.718 73.5533L330.235 64.7038M330.235 64.7038L340.99 29.8683M300.217 79.1568L293.269 60.0714M324.688 154.342L303.055 161.337M229.076 172.999L208.508 172.287M274.195 239.948H268.868M274.195 239.948H279.522M215.364 163.179L208.508 172.287M215.364 163.179H205.728M196.093 163.179L208.508 172.287M196.093 163.179H205.728M196.093 163.179L198.872 172.287M196.093 163.179L186.921 172.287M196.093 163.179L205.728 150.636M196.093 163.179L190.534 150.636M205.728 163.179V150.636M205.728 150.636H190.534M190.534 150.636L174.969 172.287M190.534 150.636L186.921 172.287M174.969 172.287V185.842M174.969 172.287H186.921M174.969 185.842L179.34 189.548M174.969 185.842L186.921 172.287M179.34 189.548L198.872 172.287M179.34 189.548L186.921 172.287M198.872 172.287H186.921" stroke="#00FFFF"/>
</g>
<g filter="url(#filter1_f)">
<path d="M105.669 283.307V272.19L114.748 257.922L123.828 243.654L141.987 235.501L146.063 252.548H193.499L204.617 235.501L201.837 226.393L182.305 243.654L177.934 239.948V226.393L193.499 204.742H208.693V217.285H218.328L232.04 199.069L255.758 167.56L281.329 133.589L303.286 119.692L325.244 105.795L351.007 89.4887L369.159 78.0004L403.253 69.1062L414 78.0004V105.053L386.391 160.642L358.782 216.231L320.056 248.75L281.329 281.269L287.814 294.055L296.894 289.607H316.164L314.311 298.502L309.494 312.584L294.67 321.478L286.702 325.925L278.735 330.372L268.729 333.337L262.429 323.331L264.652 312.584L271.694 305.543L266.505 294.055L255.758 301.096L227.223 304.06V312.584L213.777 346.772L227.223 352.978L223.887 374.843L209.805 383.367L189.793 393.743H180.158L174.228 385.961L175.711 374.843L186.087 365.208L192.572 361.131L212.77 312.584L207.211 292.943L199.058 281.269L150.14 269.596L136.984 281.269L123.828 292.943H112.71L105.669 283.307Z" fill="black" fill-opacity="0.25"/>
</g>
<g filter="url(#filter2_f)">
<path d="M236.117 231.32L198.788 205.483L122.723 242.18L94.5512 292.73L100.89 349.272H122.723L198.788 304.338L236.117 231.32Z" fill="url(#paint0_linear)" fill-opacity="0.3"/>
</g>
<g filter="url(#filter3_f)">
<path d="M160.887 194.366L171.634 172.871L169.781 184.36L160.887 194.366Z" fill="#3FB6B6"/>
</g>
<g filter="url(#filter4_f)">
<path d="M98.6277 258.107L110.857 242.172H119.751L98.6277 258.107Z" fill="#3FB6B6"/>
</g>
<g filter="url(#filter5_f)">
<path d="M153.105 357.425L177.193 341.12H186.087L153.105 357.425Z" fill="#3FB6B6"/>
</g>
<g filter="url(#filter6_f)">
<path d="M235.005 294.055L260.576 274.784L266.135 281.084L235.005 294.055Z" fill="#3FB6B6"/>
</g>
<g filter="url(#filter7_f)">
<path d="M70.4629 259.96L99.3689 221.789L97.516 233.278L70.4629 259.96Z" fill="#3FB6B6"/>
</g>
<g filter="url(#filter8_f)">
<path d="M121.044 289.496L174.71 226.578L182.729 229.046L121.044 289.496Z" fill="#3FB6B6"/>
</g>
<g filter="url(#filter9_f)">
<path d="M149.419 277.159L193.832 233.98L198.15 240.149L149.419 277.159Z" fill="#3FB6B6"/>
</g>
<g filter="url(#filter10_f)">
<path d="M156.204 291.347L201.234 253.103L204.318 260.505L156.204 291.347Z" fill="#3FB6B6"/>
</g>
<defs>
<filter id="filter0_d" x="88.2042" y="0.484985" width="337.331" height="353.652" filterUnits="userSpaceOnUse" color-interpolation-filters="sRGB">
<feFlood flood-opacity="0" result="BackgroundImageFix"/>
<feColorMatrix in="SourceAlpha" type="matrix" values="0 0 0 0 0 0 0 0 0 0 0 0 0 0 0 0 0 0 127 0"/>
<feOffset/>
<feGaussianBlur stdDeviation="7"/>
<feColorMatrix type="matrix" values="0 0 0 0 0 0 0 0 0 1 0 0 0 0 1 0 0 0 1 0"/>
<feBlend mode="normal" in2="BackgroundImageFix" result="effect1_dropShadow"/>
<feBlend mode="normal" in="SourceGraphic" in2="effect1_dropShadow" result="shape"/>
</filter>
<filter id="filter1_f" x="71.669" y="35.1062" width="376.331" height="392.637" filterUnits="userSpaceOnUse" color-interpolation-filters="sRGB">
<feFlood flood-opacity="0" result="BackgroundImageFix"/>
<feBlend mode="normal" in="SourceGraphic" in2="BackgroundImageFix" result="shape"/>
<feGaussianBlur stdDeviation="17" result="effect1_foregroundBlur"/>
</filter>
<filter id="filter2_f" x="0.551208" y="111.483" width="329.566" height="331.789" filterUnits="userSpaceOnUse" color-interpolation-filters="sRGB">
<feFlood flood-opacity="0" result="BackgroundImageFix"/>
<feBlend mode="normal" in="SourceGraphic" in2="BackgroundImageFix" result="shape"/>
<feGaussianBlur stdDeviation="47" result="effect1_foregroundBlur"/>
</filter>
<filter id="filter3_f" x="156.887" y="168.871" width="18.7471" height="29.4942" filterUnits="userSpaceOnUse" color-interpolation-filters="sRGB">
<feFlood flood-opacity="0" result="BackgroundImageFix"/>
<feBlend mode="normal" in="SourceGraphic" in2="BackgroundImageFix" result="shape"/>
<feGaussianBlur stdDeviation="2" result="effect1_foregroundBlur"/>
</filter>
<filter id="filter4_f" x="94.6277" y="238.172" width="29.1236" height="23.9354" filterUnits="userSpaceOnUse" color-interpolation-filters="sRGB">
<feFlood flood-opacity="0" result="BackgroundImageFix"/>
<feBlend mode="normal" in="SourceGraphic" in2="BackgroundImageFix" result="shape"/>
<feGaussianBlur stdDeviation="2" result="effect1_foregroundBlur"/>
</filter>
<filter id="filter5_f" x="149.105" y="337.12" width="40.9825" height="24.306" filterUnits="userSpaceOnUse" color-interpolation-filters="sRGB">
<feFlood flood-opacity="0" result="BackgroundImageFix"/>
<feBlend mode="normal" in="SourceGraphic" in2="BackgroundImageFix" result="shape"/>
<feGaussianBlur stdDeviation="2" result="effect1_foregroundBlur"/>
</filter>
<filter id="filter6_f" x="231.005" y="270.784" width="39.1296" height="27.2707" filterUnits="userSpaceOnUse" color-interpolation-filters="sRGB">
<feFlood flood-opacity="0" result="BackgroundImageFix"/>
<feBlend mode="normal" in="SourceGraphic" in2="BackgroundImageFix" result="shape"/>
<feGaussianBlur stdDeviation="2" result="effect1_foregroundBlur"/>
</filter>
<filter id="filter7_f" x="66.4629" y="217.789" width="36.906" height="46.1708" filterUnits="userSpaceOnUse" color-interpolation-filters="sRGB">
<feFlood flood-opacity="0" result="BackgroundImageFix"/>
<feBlend mode="normal" in="SourceGraphic" in2="BackgroundImageFix" result="shape"/>
<feGaussianBlur stdDeviation="2" result="effect1_foregroundBlur"/>
</filter>
<filter id="filter8_f" x="111.044" y="216.578" width="81.6846" height="82.9183" filterUnits="userSpaceOnUse" color-interpolation-filters="sRGB">
<feFlood flood-opacity="0" result="BackgroundImageFix"/>
<feBlend mode="normal" in="SourceGraphic" in2="BackgroundImageFix" result="shape"/>
<feGaussianBlur stdDeviation="5" result="effect1_foregroundBlur"/>
</filter>
<filter id="filter9_f" x="139.419" y="223.98" width="68.7308" height="63.1792" filterUnits="userSpaceOnUse" color-interpolation-filters="sRGB">
<feFlood flood-opacity="0" result="BackgroundImageFix"/>
<feBlend mode="normal" in="SourceGraphic" in2="BackgroundImageFix" result="shape"/>
<feGaussianBlur stdDeviation="5" result="effect1_foregroundBlur"/>
</filter>
<filter id="filter10_f" x="146.204" y="243.103" width="68.114" height="58.2444" filterUnits="userSpaceOnUse" color-interpolation-filters="sRGB">
<feFlood flood-opacity="0" result="BackgroundImageFix"/>
<feBlend mode="normal" in="SourceGraphic" in2="BackgroundImageFix" result="shape"/>
<feGaussianBlur stdDeviation="5" result="effect1_foregroundBlur"/>
</filter>
<linearGradient id="paint0_linear" x1="206.536" y1="231.32" x2="97.9473" y2="320.198" gradientUnits="userSpaceOnUse">
<stop stop-color="#FF5B4F"/>
<stop offset="1" stop-color="#00FFFF"/>
</linearGradient>
</defs>
</svg>
