<svg width="32" height="585" viewBox="0 0 32 585" fill="none" xmlns="http://www.w3.org/2000/svg">
<path d="M17.0608 18.1178V18.0034C17.0608 17.1502 16.3516 16.4559 15.4984 16.4559C14.6452 16.4559 13.9359 17.1501 13.9359 18.0034V18.1178C13.6235 18.2845 13.4672 18.6492 13.4672 19.0726V20.4034C13.4672 20.9835 13.7986 21.4484 14.3783 21.4484H16.5964C17.1764 21.4484 17.6857 20.9835 17.6857 20.4034V19.0726C17.6859 18.6494 17.5296 18.2845 17.0608 18.1178ZM15.8109 19.7611V20.1975C15.8109 20.3701 15.6708 20.51 15.4984 20.51C15.326 20.51 15.1861 20.3699 15.1861 20.1975V19.7657C15.1192 19.756 15.0222 19.5489 15.0222 19.4033C15.0222 19.1385 15.2389 18.9243 15.5034 18.9243C15.7681 18.9243 15.9787 19.1385 15.9787 19.4033C15.9785 19.5462 15.9672 19.6734 15.8109 19.7611ZM16.4358 18.0108H16.4087C16.4 18.0108 16.3909 18.0113 16.3822 18.0121C16.373 18.0113 16.3644 18.0108 16.3552 18.0108H14.561V18.0036C14.561 17.4949 14.9899 17.0811 15.4984 17.0811C16.0069 17.0811 16.4358 17.4949 16.4358 18.0036V18.0108V18.0108Z" fill="#D04F45"/>
<path d="M15.4877 14.2742C12.9062 14.2742 10.8061 16.374 10.8061 18.9555C10.8061 21.537 12.9064 23.6371 15.4877 23.6371C18.0689 23.6371 20.1691 21.537 20.1691 18.9555C20.1691 16.374 18.0689 14.2742 15.4877 14.2742ZM15.4877 22.7928C13.2507 22.7928 11.5933 20.8435 11.5933 18.9555C11.5933 16.7188 13.2507 15.1343 15.4877 15.1343C17.7242 15.1343 19.3625 16.7188 19.3626 18.9555C19.3626 21.1343 17.7244 22.7928 15.4877 22.7928Z" fill="#D04F45"/>
<path d="M21.8263 12.5405C21.7509 12.5405 21.6735 12.5434 21.5946 12.5483C21.0079 11.211 19.7007 10.3532 18.2328 10.3532C17.6011 10.3532 16.9835 10.5152 16.4357 10.8234C15.8527 9.50694 14.5258 8.63435 13.0766 8.63435C11.052 8.63435 9.40478 10.2816 9.40478 12.3061C9.40478 12.3855 9.40778 12.4667 9.41362 12.549C9.33096 12.5435 9.24973 12.5404 9.17054 12.5404C7.14584 12.5404 5.4986 14.1878 5.4986 16.2123C5.4986 18.1843 7.09568 19.8256 9.06376 19.8825C9.07306 19.8841 9.08269 19.8857 9.09246 19.8857H11.2186C11.1539 19.5732 11.1187 19.2751 11.1187 18.9563C11.1187 16.5434 13.075 14.5872 15.4879 14.5872C17.9006 14.5872 19.8569 16.5436 19.8569 18.9564C19.8569 19.2752 19.8217 19.573 19.757 19.8857H21.9047C21.9145 19.8857 21.924 19.8841 21.9331 19.8825C23.9015 19.8257 25.4986 18.1846 25.4986 16.2126C25.4983 14.1882 23.8514 12.5405 21.8263 12.5405Z" stroke="#D04F45"/>
<path fill-rule="evenodd" clip-rule="evenodd" d="M31 16.1357C31 13.3023 30.2149 10.6538 28.8506 8.39417C28.7079 8.15778 28.7838 7.85044 29.0202 7.70771C29.2566 7.56498 29.5639 7.64091 29.7066 7.87731C31.1625 10.2885 32 13.1151 32 16.1357C32 24.9723 24.8366 32.1357 16 32.1357C7.16344 32.1357 0 24.9723 0 16.1357C0 7.29919 7.16344 0.135742 16 0.135742C17.9984 0.135742 19.9124 0.502353 21.6775 1.17243C21.9356 1.27044 22.0655 1.55917 21.9675 1.81734C21.8694 2.0755 21.5807 2.20534 21.3225 2.10733C19.6691 1.47963 17.8753 1.13574 16 1.13574C7.71573 1.13574 1 7.85147 1 16.1357C1 24.42 7.71573 31.1357 16 31.1357C24.2843 31.1357 31 24.42 31 16.1357Z" fill="#585261"/>
<circle cx="6.5" cy="520.636" r="2.5" stroke="#D04F45"/>
<circle cx="16.5" cy="520.636" r="2.5" stroke="#D04F45"/>
<circle cx="26.5" cy="520.636" r="2.5" stroke="#D04F45"/>
<path fill-rule="evenodd" clip-rule="evenodd" d="M31 520.136C31 517.302 30.2149 514.654 28.8506 512.394C28.7079 512.158 28.7838 511.85 29.0202 511.708C29.2566 511.565 29.5639 511.641 29.7066 511.877C31.1625 514.289 32 517.115 32 520.136C32 528.972 24.8366 536.136 16 536.136C7.16344 536.136 0 528.972 0 520.136C0 511.299 7.16344 504.136 16 504.136C17.9984 504.136 19.9124 504.502 21.6775 505.172C21.9356 505.27 22.0655 505.559 21.9675 505.817C21.8694 506.076 21.5807 506.205 21.3225 506.107C19.6691 505.48 17.8753 505.136 16 505.136C7.71573 505.136 1 511.851 1 520.136C1 528.42 7.71573 535.136 16 535.136C24.2843 535.136 31 528.42 31 520.136Z" fill="#585261"/>
<path d="M9.96875 351.511C10.4415 351.511 10.8693 351.321 11.1855 351.017L12.92 351.884C12.9113 351.954 12.8984 352.024 12.8984 352.097C12.8984 353.066 13.687 353.854 14.6562 353.854C15.6255 353.854 16.4141 353.066 16.4141 352.097C16.4141 351.826 16.3475 351.573 16.2378 351.344L18.5907 348.991C18.8199 349.1 19.0732 349.167 19.3438 349.167C20.313 349.167 21.1016 348.378 21.1016 347.409C21.1016 347.227 21.0657 347.054 21.0138 346.889L23.0582 345.356C23.3371 345.542 23.6714 345.651 24.0312 345.651C25.0005 345.651 25.7891 344.863 25.7891 343.894C25.7891 342.924 25.0005 342.136 24.0312 342.136C23.062 342.136 22.2734 342.924 22.2734 343.894C22.2734 344.076 22.3093 344.249 22.3612 344.414L20.3168 345.947C20.0379 345.761 19.7036 345.651 19.3438 345.651C18.3745 345.651 17.5859 346.44 17.5859 347.409C17.5859 347.68 17.6525 347.933 17.7622 348.162L15.4093 350.515C15.1801 350.405 14.9268 350.339 14.6562 350.339C14.1835 350.339 13.7557 350.529 13.4395 350.833L11.705 349.966C11.7137 349.895 11.7266 349.826 11.7266 349.753C11.7266 348.784 10.938 347.995 9.96875 347.995C8.99951 347.995 8.21094 348.784 8.21094 349.753C8.21094 350.722 8.99951 351.511 9.96875 351.511V351.511Z" stroke="#D04F45"/>
<path d="M26.4141 360.964H25.7891V348.581C25.7891 348.257 25.5269 347.995 25.2031 347.995H22.8594C22.5356 347.995 22.2734 348.257 22.2734 348.581V360.964H21.1016V352.097C21.1016 351.773 20.8394 351.511 20.5156 351.511H18.1719C17.8481 351.511 17.5859 351.773 17.5859 352.097V360.964H16.4141V356.784C16.4141 356.46 16.1519 356.198 15.8281 356.198H13.4844C13.1606 356.198 12.8984 356.46 12.8984 356.784V360.964H11.7266V354.44C11.7266 354.117 11.4644 353.854 11.1406 353.854H8.79688C8.47308 353.854 8.21094 354.117 8.21094 354.44V360.964H7.58594C7.26215 360.964 7 361.226 7 361.55C7 361.874 7.26215 362.136 7.58594 362.136H26.4141C26.7379 362.136 27 361.874 27 361.55C27 361.226 26.7379 360.964 26.4141 360.964Z" stroke="#D04F45"/>
<path fill-rule="evenodd" clip-rule="evenodd" d="M31 352.136C31 349.302 30.2149 346.654 28.8506 344.394C28.7079 344.158 28.7838 343.85 29.0202 343.708C29.2566 343.565 29.5639 343.641 29.7066 343.877C31.1625 346.289 32 349.115 32 352.136C32 360.972 24.8366 368.136 16 368.136C7.16344 368.136 0 360.972 0 352.136C0 343.299 7.16344 336.136 16 336.136C17.9984 336.136 19.9124 336.502 21.6775 337.172C21.9356 337.27 22.0655 337.559 21.9675 337.817C21.8694 338.076 21.5807 338.205 21.3225 338.107C19.6691 337.48 17.8753 337.136 16 337.136C7.71573 337.136 1 343.851 1 352.136C1 360.42 7.71573 367.136 16 367.136C24.2843 367.136 31 360.42 31 352.136Z" fill="#585261"/>
<path d="M15.9991 436.849C15.7347 436.849 15.4737 436.789 15.2358 436.673L8.80916 433.586L6.61428 434.641C6.49376 434.7 6.41715 434.823 6.41715 434.957C6.41715 435.092 6.49376 435.214 6.61428 435.274L15.5409 439.566C15.8309 439.703 16.1673 439.703 16.4574 439.566L25.384 435.275C25.5045 435.216 25.581 435.093 25.581 434.959C25.581 434.825 25.5045 434.702 25.384 434.643L23.1891 433.586L16.7629 436.675C16.5246 436.789 16.2636 436.849 15.9991 436.849V436.849Z" stroke="#D04F45" stroke-width="0.998261"/>
<path d="M6.41547 431.432C6.41392 431.568 6.49208 431.692 6.61535 431.75L15.5409 436.039C15.8303 436.179 16.1681 436.179 16.4575 436.039L25.3825 431.75C25.5042 431.691 25.5815 431.567 25.5815 431.432C25.5815 431.297 25.5042 431.174 25.3825 431.115L16.4575 426.826C16.1681 426.685 15.8303 426.685 15.5409 426.826L6.61535 431.115C6.49208 431.172 6.41392 431.296 6.41547 431.432V431.432Z" stroke="#D04F45" stroke-width="0.998261"/>
<path d="M6.61326 442.327L15.5409 446.618C15.831 446.755 16.1674 446.755 16.4575 446.618L25.3835 442.327C25.5064 442.269 25.5848 442.145 25.5848 442.01C25.5848 441.874 25.5064 441.75 25.3835 441.692L23.1888 440.638L16.7622 443.727C16.2793 443.955 15.7199 443.955 15.2372 443.727L8.80952 440.638L6.61429 441.692C6.49274 441.751 6.41544 441.874 6.41544 442.01C6.41544 442.145 6.49274 442.268 6.61429 442.327H6.61326Z" stroke="#D04F45" stroke-width="0.998261"/>
<path d="M16.4575 443.091L25.384 438.801C25.5056 438.742 25.5829 438.619 25.5829 438.484C25.5829 438.349 25.5056 438.226 25.384 438.167L23.1888 437.112L16.7622 440.202C16.2793 440.43 15.7199 440.43 15.2372 440.202L8.80952 437.112L6.61429 438.167C6.49274 438.226 6.41544 438.349 6.41544 438.484C6.41544 438.619 6.49274 438.742 6.61429 438.801L15.5409 443.092C15.8311 443.229 16.1674 443.228 16.4575 443.091V443.091Z" stroke="#D04F45" stroke-width="0.998261"/>
<path fill-rule="evenodd" clip-rule="evenodd" d="M31 436.136C31 433.302 30.2149 430.654 28.8506 428.394C28.7079 428.158 28.7838 427.85 29.0202 427.708C29.2566 427.565 29.5639 427.641 29.7066 427.877C31.1625 430.289 32 433.115 32 436.136C32 444.972 24.8366 452.136 16 452.136C7.16344 452.136 0 444.972 0 436.136C0 427.299 7.16344 420.136 16 420.136C17.9984 420.136 19.9124 420.502 21.6775 421.172C21.9356 421.27 22.0655 421.559 21.9675 421.817C21.8694 422.076 21.5807 422.205 21.3225 422.107C19.6691 421.48 17.8753 421.136 16 421.136C7.71573 421.136 1 427.851 1 436.136C1 444.42 7.71573 451.136 16 451.136C24.2843 451.136 31 444.42 31 436.136Z" fill="#585261"/>
<path fill-rule="evenodd" clip-rule="evenodd" d="M4.40147 183.468L8.76688 179.103C9.03476 178.835 9.46909 178.835 9.73697 179.103L14.1024 183.468C14.3703 183.736 14.3703 184.171 14.1024 184.438C13.8345 184.706 13.4002 184.706 13.1323 184.438L9.93788 181.244V190.563H21.5992C21.978 190.563 22.2851 190.87 22.2851 191.249C22.2851 191.628 21.978 191.935 21.5992 191.935H8.56597V181.244L5.37156 184.438C5.10368 184.706 4.66936 184.706 4.40147 184.438C4.13359 184.171 4.13359 183.736 4.40147 183.468Z" fill="#D04F45"/>
<path fill-rule="evenodd" clip-rule="evenodd" d="M27.1356 183.939L22.7702 188.305C22.5023 188.572 22.068 188.572 21.8001 188.305L17.4347 183.939C17.1669 183.671 17.1669 183.237 17.4347 182.969C17.7026 182.701 18.1369 182.701 18.4048 182.969L21.5992 186.163V176.844H9.93795C9.55911 176.844 9.252 176.537 9.252 176.158C9.252 175.779 9.55911 175.472 9.93795 175.472H22.9711V186.163L26.1655 182.969C26.4334 182.701 26.8678 182.701 27.1356 182.969C27.4035 183.237 27.4035 183.671 27.1356 183.939Z" fill="#D04F45"/>
<path fill-rule="evenodd" clip-rule="evenodd" d="M31 184.136C31 181.302 30.2149 178.654 28.8506 176.394C28.7079 176.158 28.7838 175.85 29.0202 175.708C29.2566 175.565 29.5639 175.641 29.7066 175.877C31.1625 178.289 32 181.115 32 184.136C32 192.972 24.8366 200.136 16 200.136C7.16344 200.136 0 192.972 0 184.136C0 175.299 7.16344 168.136 16 168.136C17.9984 168.136 19.9124 168.502 21.6775 169.172C21.9356 169.27 22.0655 169.559 21.9675 169.817C21.8694 170.076 21.5807 170.205 21.3225 170.107C19.6691 169.48 17.8753 169.136 16 169.136C7.71573 169.136 1 175.851 1 184.136C1 192.42 7.71573 199.136 16 199.136C24.2843 199.136 31 192.42 31 184.136Z" fill="#585261"/>
<path d="M25.3923 264.661L24.1836 263.458V260.873C24.1836 259.582 23.1495 258.577 21.8604 258.577H7.84105C6.55189 258.577 5.4409 259.582 5.4409 260.873V264.772C5.4409 266.063 6.55189 267.167 7.84105 267.167H21.8604C23.0972 267.167 24.1126 266.074 24.1932 264.98H25.2895C25.3524 264.98 25.4057 264.916 25.4299 264.858C25.4541 264.8 25.4368 264.706 25.3923 264.661ZM9.9331 264.417C9.04255 264.417 8.31787 263.691 8.31787 262.798C8.31787 261.906 9.04255 261.179 9.9331 261.179C10.8238 261.179 11.5485 261.906 11.5485 262.798C11.5485 263.691 10.824 264.417 9.9331 264.417ZM14.9196 264.417C14.0292 264.417 13.3045 263.691 13.3045 262.798C13.3045 261.906 14.0292 261.179 14.9196 261.179C15.8105 261.179 16.535 261.906 16.535 262.798C16.535 263.691 15.8107 264.417 14.9196 264.417ZM19.9065 264.417C19.0159 264.417 18.2912 263.691 18.2912 262.798C18.2912 261.906 19.0159 261.179 19.9065 261.179C20.7973 261.179 21.5219 261.906 21.5219 262.798C21.5219 263.691 20.7975 264.417 19.9065 264.417Z" stroke="#D04F45"/>
<path d="M23.1077 269.104H9.08815C7.79899 269.104 6.69052 270.103 6.69052 271.395V273.979L5.51914 275.183C5.47467 275.228 5.47625 275.324 5.50037 275.382C5.5245 275.441 5.59624 275.508 5.65931 275.508H6.75532C6.8359 276.602 7.85149 277.695 9.08815 277.695H23.1077C24.3968 277.695 25.4332 276.585 25.4332 275.293V271.395C25.4332 270.103 24.3968 269.104 23.1077 269.104ZM11.1804 274.963C10.2897 274.963 9.56497 274.237 9.56497 273.344C9.56497 272.451 10.2897 271.725 11.1804 271.725C12.0706 271.725 12.7956 272.451 12.7956 273.344C12.7956 274.237 12.0706 274.963 11.1804 274.963ZM16.1669 274.963C15.2762 274.963 14.5513 274.237 14.5513 273.344C14.5513 272.451 15.2762 271.725 16.1669 271.725C17.0576 271.725 17.7821 272.451 17.7821 273.344C17.7821 274.237 17.0578 274.963 16.1669 274.963ZM21.1536 274.963C20.2629 274.963 19.5382 274.237 19.5382 273.344C19.5382 272.451 20.2629 271.725 21.1536 271.725C22.0441 271.725 22.769 272.451 22.769 273.344C22.769 274.237 22.0443 274.963 21.1536 274.963Z" stroke="#D04F45"/>
<path fill-rule="evenodd" clip-rule="evenodd" d="M31 268.136C31 265.302 30.2149 262.654 28.8506 260.394C28.7079 260.158 28.7838 259.85 29.0202 259.708C29.2566 259.565 29.5639 259.641 29.7066 259.877C31.1625 262.289 32 265.115 32 268.136C32 276.972 24.8366 284.136 16 284.136C7.16344 284.136 0 276.972 0 268.136C0 259.299 7.16344 252.136 16 252.136C17.9984 252.136 19.9124 252.502 21.6775 253.172C21.9356 253.27 22.0655 253.559 21.9675 253.817C21.8694 254.076 21.5807 254.205 21.3225 254.107C19.6691 253.48 17.8753 253.136 16 253.136C7.71573 253.136 1 259.851 1 268.136C1 276.42 7.71573 283.136 16 283.136C24.2843 283.136 31 276.42 31 268.136Z" fill="#585261"/>
<path d="M10.0734 95.0877L6.1448 92.9724V97.8756L10.0734 99.9909V95.0877Z" fill="#D04F45"/>
<path d="M14.7162 97.8756V92.9724L10.7876 95.0877V99.9909L14.7162 97.8756Z" fill="#D04F45"/>
<path d="M14.3202 92.3747L10.4305 90.2805L6.5408 92.3747L10.4305 94.4691L14.3202 92.3747Z" fill="#D04F45"/>
<path d="M26.1448 107.876V102.972L22.2162 105.088V109.991L26.1448 107.876Z" fill="#D04F45"/>
<path d="M21.502 105.088L17.5734 102.972V107.876L21.502 109.991V105.088Z" fill="#D04F45"/>
<path d="M25.7488 102.375L21.8591 100.281L17.9694 102.375L21.8591 104.469L25.7488 102.375Z" fill="#D04F45"/>
<path d="M24.3592 94.5173V97.5836L23.9588 97.1832L23.4537 97.6882L24.7163 98.9513L25.9789 97.6882L25.4738 97.1832L25.0734 97.5836V94.5173C25.0719 93.1374 23.9535 92.0191 22.5734 92.0173H16.8592V92.7316H22.5734C23.5592 92.7328 24.3579 93.5317 24.3592 94.5173Z" fill="#D04F45"/>
<path d="M7.93052 105.946V102.88L8.33091 103.28L8.83593 102.775L7.57337 101.512L6.31082 102.775L6.81584 103.28L7.21623 102.88V105.946C7.2178 107.326 8.33614 108.444 9.71623 108.446H15.4305V107.732H9.71623C8.73043 107.731 7.93174 106.932 7.93052 105.946Z" fill="#D04F45"/>
<path d="M16.859 100.232C16.859 100.626 16.5392 100.946 16.1447 100.946C15.7503 100.946 15.4304 100.626 15.4304 100.232C15.4304 99.8372 15.7503 99.5173 16.1447 99.5173C16.5392 99.5173 16.859 99.8372 16.859 100.232Z" fill="#D04F45"/>
<path fill-rule="evenodd" clip-rule="evenodd" d="M31 100.136C31 97.3023 30.2149 94.6538 28.8506 92.3942C28.7079 92.1578 28.7838 91.8504 29.0202 91.7077C29.2566 91.565 29.5639 91.6409 29.7066 91.8773C31.1625 94.2885 32 97.1151 32 100.136C32 108.972 24.8366 116.136 16 116.136C7.16344 116.136 0 108.972 0 100.136C0 91.2992 7.16344 84.1357 16 84.1357C17.9984 84.1357 19.9124 84.5024 21.6775 85.1724C21.9356 85.2704 22.0655 85.5592 21.9675 85.8173C21.8694 86.0755 21.5807 86.2053 21.3225 86.1073C19.6691 85.4796 17.8753 85.1357 16 85.1357C7.71573 85.1357 1 91.8515 1 100.136C1 108.42 7.71573 115.136 16 115.136C24.2843 115.136 31 108.42 31 100.136Z" fill="#585261"/>
<path d="M15.5 61.6357C15.5 61.9119 15.7239 62.1357 16 62.1357C16.2762 62.1357 16.5 61.9119 16.5 61.6357H15.5ZM15.5 32.1357L15.5 61.6357H16.5V32.1357H15.5Z" fill="#585261"/>
<path d="M16.5 68.1357C16.5 67.8596 16.2761 67.6357 16 67.6357C15.7239 67.6357 15.5 67.8596 15.5 68.1357L16.5 68.1357ZM15.5 68.1357L15.5 84.1357L16.5 84.1357L16.5 68.1357L15.5 68.1357Z" fill="#585261"/>
<path d="M15.5 145.636C15.5 145.912 15.7239 146.136 16 146.136C16.2762 146.136 16.5 145.912 16.5 145.636H15.5ZM15.5 116.136L15.5 145.636H16.5V116.136H15.5Z" fill="#585261"/>
<path d="M16.5 152.136C16.5 151.86 16.2761 151.636 16 151.636C15.7239 151.636 15.5 151.86 15.5 152.136L16.5 152.136ZM15.5 152.136L15.5 168.136L16.5 168.136L16.5 152.136L15.5 152.136Z" fill="#585261"/>
<path d="M15.5 229.636C15.5 229.912 15.7239 230.136 16 230.136C16.2762 230.136 16.5 229.912 16.5 229.636H15.5ZM15.5 200.136L15.5 229.636H16.5V200.136H15.5Z" fill="#585261"/>
<path d="M16.5 236.136C16.5 235.86 16.2761 235.636 16 235.636C15.7239 235.636 15.5 235.86 15.5 236.136L16.5 236.136ZM15.5 236.136L15.5 252.136L16.5 252.136L16.5 236.136L15.5 236.136Z" fill="#585261"/>
<path d="M15.5 313.636C15.5 313.912 15.7239 314.136 16 314.136C16.2762 314.136 16.5 313.912 16.5 313.636H15.5ZM15.5 284.136L15.5 313.636H16.5V284.136H15.5Z" fill="#585261"/>
<path d="M16.5 320.136C16.5 319.86 16.2761 319.636 16 319.636C15.7239 319.636 15.5 319.86 15.5 320.136L16.5 320.136ZM15.5 320.136L15.5 336.136L16.5 336.136L16.5 320.136L15.5 320.136Z" fill="#585261"/>
<path d="M15.5 397.636C15.5 397.912 15.7239 398.136 16 398.136C16.2762 398.136 16.5 397.912 16.5 397.636H15.5ZM15.5 368.136L15.5 397.636H16.5V368.136H15.5Z" fill="#585261"/>
<path d="M16.5 404.136C16.5 403.86 16.2761 403.636 16 403.636C15.7239 403.636 15.5 403.86 15.5 404.136L16.5 404.136ZM15.5 404.136L15.5 420.136L16.5 420.136L16.5 404.136L15.5 404.136Z" fill="#585261"/>
<path d="M15.5 481.636C15.5 481.912 15.7239 482.136 16 482.136C16.2762 482.136 16.5 481.912 16.5 481.636H15.5ZM15.5 452.136L15.5 481.636H16.5V452.136H15.5Z" fill="#585261"/>
<path d="M16.5 488.136C16.5 487.86 16.2761 487.636 16 487.636C15.7239 487.636 15.5 487.86 15.5 488.136L16.5 488.136ZM15.5 488.136L15.5 504.136L16.5 504.136L16.5 488.136L15.5 488.136Z" fill="#585261"/>
<path d="M16 536.136L16 552.136" stroke="#585261" stroke-linecap="round"/>
<path d="M16 561.136V562.636" stroke="#585261" stroke-linecap="round"/>
<path d="M16 571.636V573.136" stroke="#585261" stroke-linecap="round"/>
<path d="M16 582.136V583.636" stroke="#585261" stroke-linecap="round"/>
</svg>
