<?xml version="1.0" encoding="utf-8"?>
<!-- Generator: Adobe Illustrator 22.1.0, SVG Export Plug-In . SVG Version: 6.00 Build 0)  -->
<svg version="1.1" id="Layer_3" xmlns="http://www.w3.org/2000/svg" xmlns:xlink="http://www.w3.org/1999/xlink" x="0px" y="0px"
	 viewBox="0 0 1024 1024" style="enable-background:new 0 0 1024 1024;" xml:space="preserve">
<style type="text/css">
	.st0{fill:#4D4D4D;}
	.st1{fill:#808080;}
	.st2{fill:url(#XMLID_7_);}
	.st3{fill:#B3B3B3;}
	.st4{fill:#FFFFFF;}
</style>
<path id="XMLID_26_" class="st0" d="M212,272c0-12.7-10.3-23-23-23l0,0c-12.7,0-23,10.3-23,23v164.9c-24.7,8.5-42.5,32-42.5,59.6v58
	c0,34.8,28.2,63,63,63h3V463H212V272z"/>
<path id="XMLID_25_" class="st0" d="M858,436.9V272c0-12.7-10.3-23-23-23l0,0c-12.7,0-23,10.3-23,23v191h22.5v154.5h3
	c34.8,0,63-28.2,63-63v-58C900.5,468.9,882.7,445.4,858,436.9z"/>
<path id="XMLID_12_" class="st1" d="M512.5,146.5c-202,0-324,111.9-324,250v301c0,95,77,172,172,172h304c95,0,172-77,172-172v-301
	C836.5,258.4,720.5,146.5,512.5,146.5z"/>
<linearGradient id="XMLID_7_" gradientUnits="userSpaceOnUse" x1="512" y1="737" x2="512" y2="877.4" gradientTransform="matrix(1 0 0 -1 0 1024)">
	<stop  offset="0.1912" style="stop-color:#FFFFFF"/>
	<stop  offset="0.9262" style="stop-color:#999999"/>
</linearGradient>
<path id="XMLID_30_" class="st2" d="M586,151.6V287h-64V146.6C544.4,147,565.8,148.7,586,151.6z M502,146.6
	c-22.4,0.4-43.7,2.3-64,5.4v135h64V146.6z"/>
<g id="XMLID_14_">
	<path id="XMLID_1_" class="st3" d="M390.3,818.5c-81.5,0-147.8-66.3-147.8-147.8V485.3c0-81.5,66.3-147.8,147.8-147.8h244.5
		c81.5,0,147.8,66.3,147.8,147.8v185.2c0,81.6-66.4,148-148,148H390.3z"/>
</g>
<path id="XMLID_29_" d="M626.5,795.5h-228c-73.5,0-133-59.5-133-133v-169c0-73.5,59.5-133,133-133h228c73.5,0,133,59.5,133,133v169
	C759.5,736,700,795.5,626.5,795.5z"/>
<circle id="XMLID_5_" class="st4" cx="657.8" cy="548.2" r="39.8"/>
<circle id="XMLID_28_" class="st4" cx="370.2" cy="548.2" r="39.8"/>
<g id="XMLID_20_">
	<path id="XMLID_23_" class="st4" d="M512,695c-47.6,0-75.1-22-76.2-22.9c-5.6-4.5-6.4-12.7-1.9-18.3c4.5-5.5,12.7-6.4,18.2-1.9
		c0.2,0.2,5.7,4.4,15.7,8.6c13.5,5.7,28.3,8.5,44.2,8.5c35.6,0,61.3-17.5,61.6-17.7c5.9-4.1,14-2.6,18.1,3.3
		c4.1,5.9,2.7,13.9-3.2,18.1C587.2,673.6,556.1,695,512,695z"/>
</g>
<path id="XMLID_32_" class="st0" d="M731.5,298.5C664.5,262.5,561,263,512,263s-152.5-0.5-219.5,35.5c-51.3,27.5-57,112-0.3,113.8
	c40.2,1.3,64.3-17.3,219.8-17.3s179.7,18.5,219.8,17.3C788.5,410.5,782.8,326,731.5,298.5z"/>
<path id="XMLID_33_" class="st1" d="M512.5,326.5c-89.7,0-209.1,1.7-249.2,73.7c6.6,7.1,16.2,11.7,28.9,12.1
	c40.2,1.3,64.3-17.3,219.8-17.3s179.7,18.5,219.8,17.3c13.1-0.4,22.9-5.2,29.5-12.8C720.9,328.1,601.9,326.5,512.5,326.5z"/>
</svg>
